<?xml version="1.0" encoding="utf-8"?>
<!-- Generator: Adobe Illustrator 16.0.4, SVG Export Plug-In . SVG Version: 6.00 Build 0)  -->
<!DOCTYPE svg PUBLIC "-//W3C//DTD SVG 1.1//EN" "http://www.w3.org/Graphics/SVG/1.1/DTD/svg11.dtd">
<svg version="1.1" id="Layer_1" xmlns="http://www.w3.org/2000/svg" xmlns:xlink="http://www.w3.org/1999/xlink" x="0px" y="0px"
	 width="256px" height="96px" viewBox="0 0 256 96" enable-background="new 0 0 256 96" xml:space="preserve">
<path fill="#989898" d="M16,0C7.16,0,0,7.16,0,16s7.16,16,16,16s16-7.16,16-16S24.84,0,16,0 M11.984,24.969h-4v-12h4V24.969z
	 M9.86,11.969H9.83c-1.28,0-2.11-1.464-2.11-2.563c0-1.12,0.86-2.273,2.16-2.273c1.31,0,2.12,1.294,2.14,2.414
	C12.02,10.656,11.19,11.969,9.86,11.969 M25.984,24.969h-4V17.73c0-1.551-0.612-2.601-1.992-2.601c-1.061,0-1.754,0.71-2.014,1.4
	c-0.111,0.24,0.006,0.58,0.006,0.93v7.509H13.89c0,0,0.05-11,0-12h4.095V14c0-0.78,1.5-1.89,3.52-1.89c2.51,0,4.48,1.65,4.48,5.18
	L25.984,24.969L25.984,24.969z"/>
<path fill="#989898" d="M48.09,0c-8.822,0-16,7.178-16,16c0,8.822,7.178,16,16,16c8.823,0,16-7.178,16-16
	C64.091,7.178,56.913,0,48.09,0 M55.229,12.338c0.007,0.159,0.011,0.318,0.011,0.478c0,4.867-3.703,10.476-10.479,10.476
	c-2.079,0-4.016-0.607-5.645-1.653c0.288,0.034,0.582,0.052,0.879,0.052c1.726,0,3.313-0.589,4.574-1.577
	c-1.612-0.029-2.972-1.094-3.441-2.558c0.225,0.043,0.456,0.067,0.692,0.067c0.336,0,0.662-0.044,0.971-0.128
	c-1.685-0.338-2.954-1.826-2.954-3.612c0-0.015,0-0.031,0.001-0.046c0.496,0.275,1.064,0.442,1.667,0.46
	c-0.987-0.659-1.637-1.787-1.637-3.064c0-0.676,0.181-1.309,0.498-1.853c1.815,2.229,4.53,3.695,7.59,3.849
	c-0.063-0.27-0.095-0.55-0.095-0.839c0-2.034,1.649-3.683,3.682-3.683c1.061,0,2.016,0.447,2.688,1.163
	c0.84-0.165,1.626-0.471,2.34-0.894c-0.276,0.86-0.858,1.581-1.622,2.038c0.746-0.089,1.457-0.287,2.115-0.58
	C56.573,11.171,55.948,11.82,55.229,12.338"/>
<path fill="#989898" d="M77.748,25.568c0,2.346-1.45,4.2-5.555,4.349c-2.406-1.368-4.422-3.342-5.841-5.714
	c0.74-1.828,3.053-3.221,5.697-3.191c0.751,0.007,1.451,0.128,2.086,0.334c1.747,1.214,3.156,1.973,3.51,3.358
	C77.71,24.984,77.748,25.273,77.748,25.568 M80.09,0c-4.623,0-8.787,1.962-11.708,5.097c1.154-0.639,2.517-1.02,3.966-1.02h8.013
	l-1.79,1.88h-2.104c1.484,0.85,2.274,2.601,2.274,4.531c0,1.772-0.982,3.2-2.368,4.283c-1.353,1.057-1.61,1.499-1.61,2.398
	c0,0.767,1.617,1.91,2.36,2.467c2.588,1.941,3.112,3.162,3.112,5.59c0,2.46-2.156,4.909-5.81,5.742
	C76.188,31.634,78.096,32,80.09,32c8.837,0,16-7.163,16-16C96.09,7.164,88.927,0,80.09,0 M88.09,12v4h-2v-4h-4v-2h4V6h2v4h4v2H88.09
	z M75.521,10.609c0.372,2.837-0.871,4.662-3.03,4.598c-2.16-0.065-4.212-2.047-4.585-4.883c-0.373-2.837,1.075-5.008,3.235-4.943
	C73.3,5.445,75.148,7.773,75.521,10.609 M70.993,20.065c-2.334,0-4.316,0.805-5.714,1.996c-0.765-1.87-1.189-3.916-1.189-6.061
	c0-1.774,0.29-3.48,0.823-5.075c0.23,3.108,2.417,5.507,6.03,5.507c0.266,0,0.524-0.014,0.777-0.032
	c-0.248,0.476-0.425,1.006-0.425,1.562c0,0.936,0.515,1.471,1.152,2.09C71.965,20.052,71.501,20.065,70.993,20.065"/>
<path fill="#989898" d="M112.09,0c-8.821,0-16,7.177-16,16c0,8.821,7.178,16,16,16c8.822,0,16-7.179,16-16
	C128.089,7.177,120.914,0,112.09,0 M116.069,16.563h-2.603v9.278h-3.857v-9.278h-1.834v-3.279h1.834v-2.121
	c0-1.519,0.722-3.893,3.893-3.893l2.858,0.011v3.183h-2.075c-0.338,0-0.817,0.169-0.817,0.893v1.927h2.938L116.069,16.563z"/>
<path fill="#676767" d="M16,32C7.16,32,0,39.16,0,48s7.16,16,16,16s16-7.16,16-16S24.84,32,16,32 M12,56.969H8v-12h4V56.969z
	 M9.86,43.969H9.83c-1.28,0-2.11-1.464-2.11-2.564c0-1.12,0.86-2.273,2.16-2.273c1.31,0,2.12,1.294,2.14,2.414
	C12.02,42.656,11.19,43.969,9.86,43.969 M26,56.969h-4V49.73c0-1.55-0.62-2.601-2-2.601c-1.06,0-1.75,0.71-2.01,1.399
	C17.88,48.77,18,49.109,18,49.46v7.509h-4.11c0,0,0.05-11,0-12H18V46c0-0.78,1.5-1.89,3.52-1.89c2.51,0,4.48,1.65,4.48,5.18V56.969z
	"/>
<path fill="#676767" d="M48,32c-8.822,0-16,7.178-16,16c0,8.822,7.178,16,16,16s16-7.178,16-16C64,39.178,56.823,32,48,32
	 M55.138,44.338c0.007,0.159,0.011,0.318,0.011,0.478c0,4.868-3.703,10.476-10.479,10.476c-2.079,0-4.016-0.606-5.645-1.653
	c0.288,0.034,0.582,0.053,0.879,0.053c1.726,0,3.313-0.59,4.574-1.577c-1.612-0.029-2.972-1.095-3.441-2.558
	c0.225,0.043,0.456,0.066,0.692,0.066c0.336,0,0.662-0.044,0.971-0.128c-1.685-0.338-2.954-1.826-2.954-3.612
	c0-0.015,0-0.031,0.001-0.046c0.496,0.275,1.064,0.442,1.667,0.46c-0.987-0.659-1.637-1.787-1.637-3.064
	c0-0.676,0.181-1.309,0.498-1.853c1.815,2.229,4.53,3.695,7.59,3.849c-0.063-0.27-0.095-0.55-0.095-0.839
	c0-2.034,1.649-3.683,3.682-3.683c1.06,0,2.015,0.447,2.688,1.163c0.84-0.165,1.626-0.471,2.34-0.894
	c-0.277,0.86-0.859,1.581-1.622,2.038c0.746-0.089,1.457-0.287,2.116-0.58C56.482,43.171,55.858,43.82,55.138,44.338"/>
<path fill="#676767" d="M77.657,57.568c0,2.346-1.45,4.199-5.555,4.349c-2.406-1.368-4.422-3.342-5.841-5.714
	c0.74-1.828,3.053-3.221,5.697-3.191c0.751,0.008,1.451,0.129,2.086,0.334c1.747,1.215,3.156,1.973,3.51,3.358
	C77.62,56.984,77.657,57.273,77.657,57.568 M80,32c-4.623,0-8.787,1.962-11.708,5.097c1.154-0.639,2.517-1.02,3.966-1.02h8.013
	l-1.79,1.88h-2.104c1.484,0.85,2.274,2.601,2.274,4.531c0,1.772-0.982,3.2-2.368,4.283c-1.353,1.057-1.61,1.499-1.61,2.398
	c0,0.767,1.617,1.91,2.36,2.467c2.588,1.941,3.112,3.162,3.112,5.591c0,2.459-2.155,4.908-5.809,5.741
	C76.097,63.634,78.006,64,80,64c8.837,0,16-7.163,16-16C96,39.164,88.837,32,80,32 M88,44v4h-2v-4h-4v-2h4v-4h2v4h4v2H88z
	 M75.431,42.609c0.372,2.837-0.871,4.662-3.03,4.598c-2.16-0.065-4.212-2.047-4.585-4.883c-0.373-2.837,1.075-5.008,3.235-4.943
	C73.21,37.445,75.058,39.773,75.431,42.609 M70.903,52.064c-2.334,0-4.316,0.806-5.714,1.996C64.424,52.191,64,50.145,64,48
	c0-1.774,0.29-3.48,0.823-5.075c0.23,3.108,2.417,5.507,6.03,5.507c0.266,0,0.524-0.014,0.777-0.032
	c-0.248,0.476-0.425,1.006-0.425,1.562c0,0.937,0.515,1.472,1.152,2.09C71.875,52.052,71.411,52.064,70.903,52.064"/>
<path fill="#676767" d="M112,32c-8.822,0-16,7.177-16,16c0,8.82,7.178,16,16,16s16-7.18,16-16C128,39.177,120.823,32,112,32
	 M115.979,48.562h-2.603v9.278h-3.857v-9.278h-1.834v-3.278h1.834v-2.121c0-1.519,0.722-3.893,3.892-3.893l2.859,0.011v3.183h-2.075
	c-0.338,0-0.818,0.169-0.818,0.893v1.927h2.939L115.979,48.562z"/>
<rect x="211.043" y="72" fill="#595555" width="2" height="3"/>
<rect x="212.043" y="71" fill="#595555" width="2" height="2"/>
<rect x="213.043" y="70" fill="#595555" width="2" height="2"/>
<rect x="214.043" y="69" fill="#595555" width="2" height="2"/>
<rect x="215.043" y="68" fill="#595555" width="2" height="2"/>
<rect x="216.043" y="67" fill="#595555" width="2" height="2"/>
<rect x="217.043" y="66" fill="#595555" width="2" height="2"/>
<rect x="218.043" y="65" fill="#595555" width="2" height="2"/>
<rect x="219.043" y="64" fill="#595555" width="2" height="2"/>
<rect x="220.043" y="63" fill="#595555" width="2" height="2"/>
<rect x="221.043" y="62" fill="#595555" width="2" height="2"/>
<rect x="222.043" y="61" fill="#595555" width="2" height="2"/>
<rect x="223.043" y="60" fill="#595555" width="2" height="2"/>
<polygon fill="#595555" points="226.043,60 226.043,61 224.043,61 224.043,59 225.043,59 225.043,60 "/>
<rect x="212.043" y="74" fill="#595555" width="2" height="2"/>
<rect x="213.043" y="75" fill="#595555" width="2" height="2"/>
<rect x="214.043" y="76" fill="#595555" width="2" height="2"/>
<rect x="215.043" y="77" fill="#595555" width="2" height="2"/>
<rect x="216.043" y="78" fill="#595555" width="2" height="2"/>
<rect x="217.043" y="79" fill="#595555" width="2" height="2"/>
<rect x="218.043" y="80" fill="#595555" width="2" height="2"/>
<rect x="219.043" y="81" fill="#595555" width="2" height="2"/>
<rect x="220.043" y="82" fill="#595555" width="2" height="2"/>
<rect x="221.043" y="83" fill="#595555" width="2" height="2"/>
<rect x="222.043" y="84" fill="#595555" width="2" height="2"/>
<rect x="223.043" y="85" fill="#595555" width="2" height="2"/>
<polygon fill="#595555" points="226.043,87 226.043,86 224.043,86 224.043,88 225.043,88 225.043,87 "/>
<rect x="210.085" y="73.083" fill="#595555" width="2.958" height="0.917"/>
<rect x="239.085" y="72" fill="#595555" width="2" height="3"/>
<rect x="238.085" y="74" fill="#595555" width="2" height="2"/>
<rect x="237.085" y="75" fill="#595555" width="2" height="2"/>
<rect x="236.085" y="76" fill="#595555" width="2" height="2"/>
<rect x="235.085" y="77" fill="#595555" width="2" height="2"/>
<rect x="234.085" y="78" fill="#595555" width="2" height="2"/>
<rect x="233.085" y="79" fill="#595555" width="2" height="2"/>
<rect x="232.085" y="80" fill="#595555" width="2" height="2"/>
<rect x="231.085" y="81" fill="#595555" width="2" height="2"/>
<rect x="230.085" y="82" fill="#595555" width="2" height="2"/>
<rect x="229.085" y="83" fill="#595555" width="2" height="2"/>
<rect x="228.085" y="84" fill="#595555" width="2" height="2"/>
<rect x="227.085" y="85" fill="#595555" width="2" height="2"/>
<polygon fill="#595555" points="226.085,87 226.085,86 228.085,86 228.085,88 227.085,88 227.085,87 "/>
<rect x="238.085" y="71" fill="#595555" width="2" height="2"/>
<rect x="237.085" y="70" fill="#595555" width="2" height="2"/>
<rect x="236.085" y="69" fill="#595555" width="2" height="2"/>
<rect x="235.085" y="68" fill="#595555" width="2" height="2"/>
<rect x="234.085" y="67" fill="#595555" width="2" height="2"/>
<rect x="233.085" y="66" fill="#595555" width="2" height="2"/>
<rect x="232.085" y="65" fill="#595555" width="2" height="2"/>
<rect x="231.085" y="64" fill="#595555" width="2" height="2"/>
<rect x="230.085" y="63" fill="#595555" width="2" height="2"/>
<rect x="229.085" y="62" fill="#595555" width="2" height="2"/>
<rect x="228.085" y="61" fill="#595555" width="2" height="2"/>
<rect x="227.085" y="60" fill="#595555" width="2" height="2"/>
<polygon fill="#595555" points="226.085,60 226.085,61 228.085,61 228.085,59 227.085,59 227.085,60 "/>
<rect x="239.085" y="73" fill="#595555" width="2.958" height="0.917"/>
<polygon fill="#4286C6" points="243.085,64 243.085,63 244.085,63 244.085,62 245.085,62 245.085,61 246.085,61 246.085,60 
	247.085,60 247.085,59 248.085,59 248.085,60 249.085,60 249.085,61 248.085,61 248.085,62 247.085,62 247.085,63 246.085,63 
	246.085,64 245.085,64 245.085,65 246.085,65 246.085,66 247.085,66 247.085,67 248.085,67 248.085,68 249.085,68 249.085,69 
	248.085,69 248.085,70 247.085,70 247.085,69 246.085,69 246.085,68 245.085,68 245.085,67 244.085,67 244.085,66 243.085,66 
	243.085,65 242.085,65 242.085,64 "/>
<polygon fill="#4286C6" points="255.085,65 255.085,66 254.085,66 254.085,67 253.085,67 253.085,68 252.085,68 252.085,69 
	251.085,69 251.085,70 250.085,70 250.085,69 249.085,69 249.085,68 250.085,68 250.085,67 251.085,67 251.085,66 252.085,66 
	252.085,65 253.085,65 253.085,64 252.085,64 252.085,63 251.085,63 251.085,62 250.085,62 250.085,61 249.085,61 249.085,60 
	250.085,60 250.085,59 251.085,59 251.085,60 252.085,60 252.085,61 253.085,61 253.085,62 254.085,62 254.085,63 255.085,63 
	255.085,64 256.085,64 256.085,65 "/>
<rect x="175.09" y="1" fill="#999DA9" width="1" height="4"/>
<rect x="179.09" y="1" fill="#999DA9" width="1" height="4"/>
<rect x="179.09" y="1" fill="#999DA9" width="1" height="4"/>
<rect x="181.09" fill="#999DA9" width="1" height="5"/>
<rect x="187.09" fill="#999DA9" width="1" height="5"/>
<rect x="199.09" fill="#999DA9" width="1" height="5"/>
<rect x="207.09" fill="#999DA9" width="1" height="5"/>
<rect x="243.09" fill="#999DA9" width="1" height="5"/>
<rect x="225.09" fill="#999DA9" width="1" height="5"/>
<rect x="231.09" fill="#999DA9" width="1" height="5"/>
<rect x="229.09" y="1" fill="#999DA9" width="1" height="3"/>
<rect x="226.09" fill="#999DA9" width="3" height="1"/>
<rect x="226.09" y="4" fill="#999DA9" width="3" height="1"/>
<rect x="203.09" fill="#999DA9" width="1" height="5"/>
<rect x="191.09" fill="#999DA9" width="1" height="5"/>
<rect x="185.09" y="3" fill="#999DA9" width="1" height="2"/>
<rect x="176.09" fill="#999DA9" width="3" height="1"/>
<rect x="182.09" fill="#999DA9" width="3" height="1"/>
<rect x="176.09" y="2" fill="#999DA9" width="3" height="1"/>
<rect x="182.09" y="2" fill="#999DA9" width="3" height="1"/>
<rect x="185.09" y="1" fill="#999DA9" width="1" height="1"/>
<rect x="188.09" y="1" fill="#999DA9" width="1" height="1"/>
<g opacity="0.5">
	<g>
		<g>
			<defs>
				<rect id="SVGID_1_" x="185.09" width="1" height="1"/>
			</defs>
			<clipPath id="SVGID_2_">
				<use xlink:href="#SVGID_1_"  overflow="visible"/>
			</clipPath>
			<rect x="185.09" clip-path="url(#SVGID_2_)" fill="#999DA9" width="1" height="1"/>
		</g>
	</g>
</g>
<g opacity="0.5">
	<g>
		<g>
			<defs>
				<rect id="SVGID_3_" x="179.09" width="1" height="1"/>
			</defs>
			<clipPath id="SVGID_4_">
				<use xlink:href="#SVGID_3_"  overflow="visible"/>
			</clipPath>
			<rect x="179.09" clip-path="url(#SVGID_4_)" fill="#999DA9" width="1" height="1"/>
		</g>
	</g>
</g>
<g opacity="0.5">
	<g>
		<g>
			<defs>
				<rect id="SVGID_5_" x="185.09" y="2" width="1" height="1"/>
			</defs>
			<clipPath id="SVGID_6_">
				<use xlink:href="#SVGID_5_"  overflow="visible"/>
			</clipPath>
			<rect x="185.09" y="2" clip-path="url(#SVGID_6_)" fill="#999DA9" width="1" height="1"/>
		</g>
	</g>
</g>
<g opacity="0.5">
	<g>
		<g>
			<defs>
				<rect id="SVGID_7_" x="175.09" width="1" height="1"/>
			</defs>
			<clipPath id="SVGID_8_">
				<use xlink:href="#SVGID_7_"  overflow="visible"/>
			</clipPath>
			<rect x="175.09" clip-path="url(#SVGID_8_)" fill="#999DA9" width="1" height="1"/>
		</g>
	</g>
</g>
<rect x="193.09" y="1" fill="#999DA9" width="1" height="4"/>
<rect x="197.09" y="1" fill="#999DA9" width="1" height="4"/>
<rect x="197.09" y="1" fill="#999DA9" width="1" height="4"/>
<rect x="194.09" fill="#999DA9" width="3" height="1"/>
<rect x="194.09" y="2" fill="#999DA9" width="3" height="1"/>
<g opacity="0.5">
	<g>
		<g>
			<defs>
				<rect id="SVGID_9_" x="197.09" width="1" height="1"/>
			</defs>
			<clipPath id="SVGID_10_">
				<use xlink:href="#SVGID_9_"  overflow="visible"/>
			</clipPath>
			<rect x="197.09" clip-path="url(#SVGID_10_)" fill="#999DA9" width="1" height="1"/>
		</g>
	</g>
</g>
<g opacity="0.5">
	<g>
		<g>
			<defs>
				<rect id="SVGID_11_" x="193.09" width="1" height="1"/>
			</defs>
			<clipPath id="SVGID_12_">
				<use xlink:href="#SVGID_11_"  overflow="visible"/>
			</clipPath>
			<rect x="193.09" clip-path="url(#SVGID_12_)" fill="#999DA9" width="1" height="1"/>
		</g>
	</g>
</g>
<rect x="211.09" y="1" fill="#999DA9" width="1" height="4"/>
<rect x="215.09" y="1" fill="#999DA9" width="1" height="4"/>
<rect x="215.09" y="1" fill="#999DA9" width="1" height="4"/>
<rect x="212.09" fill="#999DA9" width="3" height="1"/>
<rect x="212.09" y="2" fill="#999DA9" width="3" height="1"/>
<g opacity="0.5">
	<g>
		<g>
			<defs>
				<rect id="SVGID_13_" x="215.09" width="1" height="1"/>
			</defs>
			<clipPath id="SVGID_14_">
				<use xlink:href="#SVGID_13_"  overflow="visible"/>
			</clipPath>
			<rect x="215.09" clip-path="url(#SVGID_14_)" fill="#999DA9" width="1" height="1"/>
		</g>
	</g>
</g>
<g opacity="0.5">
	<g>
		<g>
			<defs>
				<rect id="SVGID_15_" x="229.09" width="1" height="1"/>
			</defs>
			<clipPath id="SVGID_16_">
				<use xlink:href="#SVGID_15_"  overflow="visible"/>
			</clipPath>
			<rect x="229.09" clip-path="url(#SVGID_16_)" fill="#999DA9" width="1" height="1"/>
		</g>
	</g>
</g>
<g opacity="0.5">
	<g>
		<g>
			<defs>
				<rect id="SVGID_17_" x="229.09" y="4" width="1" height="1"/>
			</defs>
			<clipPath id="SVGID_18_">
				<use xlink:href="#SVGID_17_"  overflow="visible"/>
			</clipPath>
			<rect x="229.09" y="4" clip-path="url(#SVGID_18_)" fill="#999DA9" width="1" height="1"/>
		</g>
	</g>
</g>
<g opacity="0.5">
	<g>
		<g>
			<defs>
				<rect id="SVGID_19_" x="211.09" width="1" height="1"/>
			</defs>
			<clipPath id="SVGID_20_">
				<use xlink:href="#SVGID_19_"  overflow="visible"/>
			</clipPath>
			<rect x="211.09" clip-path="url(#SVGID_20_)" fill="#999DA9" width="1" height="1"/>
		</g>
	</g>
</g>
<rect x="189.09" y="2" fill="#999DA9" width="1" height="1"/>
<rect x="200.09" y="1" fill="#999DA9" width="1" height="1"/>
<rect x="201.09" y="2" fill="#999DA9" width="1" height="1"/>
<rect x="202.09" y="3" fill="#999DA9" width="1" height="1"/>
<rect x="251.09" fill="#999DA9" width="1" height="5"/>
<rect x="255.09" fill="#999DA9" width="1" height="5"/>
<rect x="252.09" y="1" fill="#999DA9" width="1" height="1"/>
<rect x="253.09" y="2" fill="#999DA9" width="1" height="1"/>
<rect x="254.09" y="3" fill="#999DA9" width="1" height="1"/>
<rect x="221.09" y="3" fill="#999DA9" width="1" height="1"/>
<rect x="217.09" y="1" fill="#999DA9" width="1" height="1"/>
<rect x="190.09" y="1" fill="#999DA9" width="1" height="1"/>
<rect x="205.09" fill="#999DA9" width="5" height="1"/>
<rect x="217.09" fill="#999DA9" width="5" height="1"/>
<rect x="217.09" y="4" fill="#999DA9" width="5" height="1"/>
<rect x="217.09" y="2" fill="#999DA9" width="5" height="1"/>
<rect x="241.09" y="3" fill="#999DA9" width="1" height="1"/>
<rect x="237.09" y="1" fill="#999DA9" width="1" height="1"/>
<rect x="237.09" fill="#999DA9" width="5" height="1"/>
<rect x="237.09" y="4" fill="#999DA9" width="5" height="1"/>
<rect x="237.09" y="2" fill="#999DA9" width="5" height="1"/>
<rect x="249.09" y="3" fill="#999DA9" width="1" height="1"/>
<rect x="245.09" y="1" fill="#999DA9" width="1" height="3"/>
<rect x="245.09" fill="#999DA9" width="5" height="1"/>
<rect x="245.09" y="4" fill="#999DA9" width="5" height="1"/>
<rect x="247.09" y="2" fill="#999DA9" width="3" height="1"/>
<rect x="231.09" fill="#999DA9" width="5" height="1"/>
<rect x="231.09" y="4" fill="#999DA9" width="5" height="1"/>
<rect x="231.09" y="2" fill="#999DA9" width="5" height="1"/>
<path fill="#4286C6" d="M188.489,7.4V5l-5.6,5.6l5.6,5.601v-2.4l-3.199-3.2L188.489,7.4z M193.29,8.201V5l-5.602,5.6l5.602,5.601
	v-3.28c4,0,6.8,1.28,8.8,4.08C201.29,13,198.89,9,193.29,8.201"/>
<rect x="202.09" y="5" fill="#4286C6" width="54" height="54"/>
<path fill="#FFFFFF" d="M224.745,31.375c1.334,0.87,1.914,2.262,1.914,3.77c0,2.784-2.028,4.755-4.813,4.755
	c-2.551,0-4.756-1.681-4.756-4.755c0-1.45,0.521-2.668,1.276-3.828l4.233-6.148h4.756L224.745,31.375z M236.741,31.375
	c1.334,0.87,1.913,2.262,1.913,3.77c0,2.784-2.029,4.755-4.812,4.755c-2.553,0-4.756-1.681-4.756-4.755
	c0-1.45,0.521-2.668,1.275-3.828l4.234-6.148h4.756L236.741,31.375z"/>
<path fill="#0384B1" d="M16,64C7.16,64,0,71.16,0,80s7.16,16,16,16s16-7.16,16-16S24.84,64,16,64 M12,88.969H8v-12h4V88.969z
	 M9.86,75.969H9.83c-1.28,0-2.11-1.464-2.11-2.564c0-1.119,0.86-2.272,2.16-2.272c1.31,0,2.12,1.294,2.14,2.414
	C12.02,74.656,11.19,75.969,9.86,75.969 M26,88.969h-4V81.73c0-1.551-0.62-2.601-2-2.601c-1.06,0-1.75,0.71-2.01,1.399
	C17.88,80.77,18,81.109,18,81.46v7.509h-4.11c0,0,0.05-11,0-12H18V78c0-0.779,1.5-1.891,3.52-1.891c2.51,0,4.48,1.65,4.48,5.181
	V88.969z"/>
<path fill="#2AAAE1" d="M48,64c-8.822,0-16,7.178-16,16s7.178,16,16,16s16-7.178,16-16S56.823,64,48,64 M55.138,76.338
	c0.007,0.159,0.011,0.318,0.011,0.479c0,4.867-3.703,10.476-10.479,10.476c-2.079,0-4.016-0.606-5.645-1.653
	c0.288,0.034,0.582,0.053,0.879,0.053c1.726,0,3.313-0.59,4.574-1.578c-1.612-0.028-2.972-1.094-3.441-2.557
	c0.225,0.043,0.456,0.066,0.692,0.066c0.336,0,0.662-0.044,0.971-0.128c-1.685-0.338-2.954-1.826-2.954-3.612
	c0-0.015,0-0.031,0.001-0.046c0.496,0.274,1.064,0.442,1.667,0.46c-0.987-0.658-1.637-1.787-1.637-3.064
	c0-0.676,0.181-1.309,0.498-1.853c1.815,2.229,4.53,3.695,7.59,3.849c-0.063-0.27-0.095-0.549-0.095-0.838
	c0-2.035,1.649-3.684,3.682-3.684c1.06,0,2.015,0.447,2.688,1.163c0.84-0.165,1.626-0.472,2.34-0.894
	c-0.277,0.859-0.859,1.58-1.622,2.037c0.746-0.089,1.457-0.287,2.116-0.58C56.482,75.171,55.858,75.82,55.138,76.338"/>
<path fill="#DD4B38" d="M77.657,89.568c0,2.346-1.45,4.199-5.555,4.349c-2.406-1.368-4.422-3.342-5.841-5.714
	c0.74-1.828,3.053-3.221,5.697-3.191c0.751,0.008,1.451,0.129,2.086,0.334c1.747,1.215,3.156,1.973,3.51,3.358
	C77.62,88.984,77.657,89.273,77.657,89.568 M80,64c-4.623,0-8.787,1.962-11.708,5.098c1.154-0.64,2.517-1.021,3.966-1.021h8.013
	l-1.79,1.88h-2.104c1.484,0.85,2.274,2.602,2.274,4.531c0,1.771-0.982,3.199-2.368,4.283c-1.353,1.057-1.61,1.498-1.61,2.397
	c0,0.767,1.617,1.91,2.36,2.467c2.588,1.941,3.112,3.162,3.112,5.591c0,2.459-2.155,4.908-5.809,5.741
	C76.097,95.634,78.006,96,80,96c8.837,0,16-7.163,16-16C96,71.164,88.837,64,80,64 M88,76v4h-2v-4h-4v-2h4v-4h2v4h4v2H88z
	 M75.431,74.609c0.372,2.836-0.871,4.662-3.03,4.598c-2.16-0.064-4.212-2.047-4.585-4.883c-0.373-2.838,1.075-5.008,3.235-4.943
	C73.21,69.445,75.058,71.773,75.431,74.609 M70.903,84.064c-2.334,0-4.316,0.806-5.714,1.996C64.424,84.191,64,82.145,64,80
	c0-1.773,0.29-3.48,0.823-5.075c0.23,3.108,2.417,5.507,6.03,5.507c0.266,0,0.524-0.014,0.777-0.031
	c-0.248,0.476-0.425,1.006-0.425,1.562c0,0.937,0.515,1.472,1.152,2.09C71.875,84.052,71.411,84.064,70.903,84.064"/>
<path fill="#3B5999" d="M112,64c-8.822,0-16,7.177-16,16c0,8.82,7.178,16,16,16s16-7.18,16-16C128,71.177,120.823,64,112,64
	 M115.979,80.562h-2.603v9.278h-3.856v-9.278h-1.834v-3.278h1.834v-2.121c0-1.519,0.722-3.894,3.892-3.894l2.858,0.012v3.183h-2.074
	c-0.338,0-0.818,0.169-0.818,0.894v1.927h2.939L115.979,80.562z"/>
<g>
	<path fill="#989898" d="M144,0c-8.837,0-16,7.164-16,16c0,8.837,7.163,16,16,16s16-7.163,16-16C160,7.164,152.837,0,144,0z
		 M153.502,25.502c-1.235,1.234-2.673,2.204-4.272,2.881c-0.406,0.172-0.819,0.322-1.237,0.453v-2.398
		c0-1.261-0.433-2.188-1.297-2.781c0.542-0.052,1.039-0.125,1.492-0.219s0.933-0.229,1.438-0.406s0.958-0.389,1.359-0.633
		c0.401-0.245,0.786-0.562,1.156-0.953s0.68-0.833,0.93-1.328s0.448-1.088,0.594-1.781s0.219-1.456,0.219-2.289
		c0-1.615-0.526-2.99-1.578-4.125c0.479-1.25,0.427-2.609-0.156-4.078l-0.391-0.047c-0.271-0.031-0.758,0.083-1.461,0.344
		s-1.492,0.688-2.367,1.281c-1.239-0.344-2.526-0.516-3.859-0.516c-1.344,0-2.625,0.172-3.844,0.516
		c-0.552-0.375-1.075-0.685-1.57-0.93s-0.891-0.412-1.188-0.5s-0.573-0.143-0.828-0.164s-0.419-0.026-0.492-0.016
		s-0.125,0.021-0.156,0.031c-0.583,1.479-0.636,2.838-0.156,4.078c-1.052,1.135-1.578,2.51-1.578,4.125
		c0,0.833,0.072,1.596,0.219,2.289c0.146,0.693,0.344,1.287,0.594,1.781s0.56,0.938,0.93,1.328s0.755,0.708,1.156,0.953
		c0.401,0.244,0.854,0.455,1.359,0.633s0.984,0.312,1.438,0.406s0.95,0.167,1.492,0.219c-0.854,0.583-1.281,1.511-1.281,2.781v2.444
		c-0.472-0.14-0.938-0.306-1.394-0.499c-1.601-0.677-3.037-1.646-4.272-2.881c-1.234-1.235-2.204-2.672-2.881-4.272
		c-0.699-1.655-1.055-3.414-1.055-5.229s0.355-3.575,1.055-5.229c0.677-1.6,1.646-3.037,2.881-4.272
		c1.235-1.235,2.673-2.204,4.272-2.881c1.655-0.7,3.414-1.055,5.229-1.055s3.574,0.355,5.229,1.055
		c1.601,0.677,3.037,1.646,4.272,2.881c1.234,1.235,2.204,2.672,2.881,4.272c0.699,1.655,1.055,3.414,1.055,5.229
		s-0.355,3.575-1.055,5.229C155.706,22.83,154.736,24.267,153.502,25.502z"/>
</g>
<g>
	<path fill="#676767" d="M144,32c-8.837,0-16,7.164-16,16c0,8.837,7.163,16,16,16s16-7.163,16-16C160,39.164,152.837,32,144,32z
		 M153.502,57.502c-1.235,1.234-2.673,2.204-4.272,2.881c-0.406,0.172-0.819,0.322-1.237,0.453v-2.398
		c0-1.261-0.433-2.188-1.297-2.781c0.542-0.052,1.039-0.125,1.492-0.219s0.933-0.229,1.438-0.406s0.958-0.389,1.359-0.633
		s0.786-0.562,1.156-0.953s0.68-0.834,0.93-1.328s0.448-1.088,0.594-1.781s0.219-1.455,0.219-2.289c0-1.615-0.526-2.99-1.578-4.125
		c0.479-1.25,0.427-2.609-0.156-4.078l-0.391-0.047c-0.271-0.031-0.758,0.083-1.461,0.344s-1.492,0.688-2.367,1.281
		c-1.239-0.344-2.526-0.516-3.859-0.516c-1.344,0-2.625,0.172-3.844,0.516c-0.552-0.375-1.075-0.685-1.57-0.93
		s-0.891-0.412-1.188-0.5s-0.573-0.143-0.828-0.164s-0.419-0.026-0.492-0.016s-0.125,0.021-0.156,0.031
		c-0.583,1.479-0.636,2.838-0.156,4.078c-1.052,1.135-1.578,2.51-1.578,4.125c0,0.834,0.072,1.596,0.219,2.289
		c0.146,0.693,0.344,1.287,0.594,1.781s0.56,0.938,0.93,1.328s0.755,0.709,1.156,0.953s0.854,0.455,1.359,0.633
		s0.984,0.312,1.438,0.406s0.95,0.167,1.492,0.219c-0.854,0.583-1.281,1.511-1.281,2.781v2.444c-0.472-0.14-0.938-0.306-1.394-0.499
		c-1.601-0.677-3.037-1.646-4.272-2.881c-1.234-1.235-2.204-2.672-2.881-4.272c-0.699-1.655-1.055-3.414-1.055-5.229
		s0.355-3.575,1.055-5.229c0.677-1.6,1.646-3.037,2.881-4.272c1.235-1.235,2.673-2.204,4.272-2.881
		c1.655-0.7,3.414-1.055,5.229-1.055s3.574,0.355,5.229,1.055c1.601,0.677,3.037,1.646,4.272,2.881
		c1.234,1.235,2.204,2.672,2.881,4.272c0.699,1.655,1.055,3.414,1.055,5.229s-0.355,3.574-1.055,5.229
		C155.706,54.83,154.736,56.267,153.502,57.502z"/>
</g>
<g>
	<path d="M144,64c-8.837,0-16,7.164-16,16c0,8.837,7.163,16,16,16s16-7.163,16-16C160,71.164,152.837,64,144,64z M153.502,89.502
		c-1.235,1.234-2.673,2.204-4.272,2.881c-0.406,0.172-0.819,0.322-1.237,0.453v-2.398c0-1.261-0.433-2.188-1.297-2.781
		c0.542-0.052,1.039-0.125,1.492-0.219s0.933-0.229,1.438-0.406s0.958-0.389,1.359-0.633s0.786-0.562,1.156-0.953
		s0.68-0.834,0.93-1.328s0.448-1.088,0.594-1.781s0.219-1.455,0.219-2.289c0-1.615-0.526-2.99-1.578-4.125
		c0.479-1.25,0.427-2.609-0.156-4.078l-0.391-0.047c-0.271-0.031-0.758,0.084-1.461,0.344s-1.492,0.688-2.367,1.281
		c-1.239-0.344-2.526-0.516-3.859-0.516c-1.344,0-2.625,0.172-3.844,0.516c-0.552-0.375-1.075-0.686-1.57-0.93
		s-0.891-0.412-1.188-0.5s-0.573-0.143-0.828-0.164s-0.419-0.025-0.492-0.016s-0.125,0.021-0.156,0.031
		c-0.583,1.479-0.636,2.838-0.156,4.078c-1.052,1.135-1.578,2.51-1.578,4.125c0,0.834,0.072,1.596,0.219,2.289
		c0.146,0.693,0.344,1.287,0.594,1.781s0.56,0.938,0.93,1.328s0.755,0.709,1.156,0.953s0.854,0.455,1.359,0.633
		s0.984,0.312,1.438,0.406s0.95,0.167,1.492,0.219c-0.854,0.583-1.281,1.511-1.281,2.781v2.444c-0.472-0.14-0.938-0.306-1.394-0.499
		c-1.601-0.677-3.037-1.646-4.272-2.881c-1.234-1.235-2.204-2.672-2.881-4.272c-0.699-1.655-1.055-3.414-1.055-5.229
		s0.355-3.574,1.055-5.229c0.677-1.601,1.646-3.037,2.881-4.272c1.235-1.234,2.673-2.204,4.272-2.881
		c1.655-0.699,3.414-1.055,5.229-1.055s3.574,0.355,5.229,1.055c1.601,0.677,3.037,1.646,4.272,2.881
		c1.234,1.234,2.204,2.672,2.881,4.272c0.699,1.655,1.055,3.414,1.055,5.229s-0.355,3.574-1.055,5.229
		C155.706,86.83,154.736,88.267,153.502,89.502z"/>
</g>
</svg>
