<?xml version="1.0" encoding="utf-8"?>
<!-- Generator: Adobe Illustrator 16.0.4, SVG Export Plug-In . SVG Version: 6.00 Build 0)  -->
<!DOCTYPE svg PUBLIC "-//W3C//DTD SVG 1.1//EN" "http://www.w3.org/Graphics/SVG/1.1/DTD/svg11.dtd">
<svg version="1.1" id="Layer_1" xmlns="http://www.w3.org/2000/svg" xmlns:xlink="http://www.w3.org/1999/xlink" x="0px" y="0px"
	 width="256px" height="96px" viewBox="0 0 256 96" enable-background="new 0 0 256 96" xml:space="preserve">
<path fill="#989898" d="M16,0C7.16,0,0,7.16,0,16c0,8.84,7.16,16,16,16c8.84,0,16-7.16,16-16C32,7.16,24.84,0,16,0 M11.984,24.969
	h-4v-12h4V24.969z M9.86,11.969H9.83c-1.28,0-2.11-1.464-2.11-2.564c0-1.12,0.86-2.273,2.16-2.273c1.31,0,2.12,1.294,2.14,2.414
	C12.02,10.656,11.19,11.969,9.86,11.969 M25.984,24.969h-4V17.73c0-1.551-0.612-2.601-1.992-2.601c-1.061,0-1.754,0.71-2.014,1.4
	c-0.111,0.24,0.006,0.58,0.006,0.93v7.509H13.89c0,0,0.05-11,0-12h4.095V14c0-0.78,1.5-1.89,3.52-1.89c2.51,0,4.48,1.65,4.48,5.18
	V24.969z"/>
<path fill="#989898" d="M48.09,0c-8.822,0-16,7.178-16,16c0,8.822,7.178,16,16,16c8.823,0,16-7.178,16-16
	C64.091,7.178,56.913,0,48.09,0 M55.229,12.338c0.007,0.159,0.011,0.318,0.011,0.478c0,4.867-3.703,10.476-10.479,10.476
	c-2.079,0-4.016-0.607-5.645-1.653c0.288,0.034,0.582,0.052,0.879,0.052c1.726,0,3.313-0.589,4.574-1.577
	c-1.612-0.029-2.972-1.094-3.441-2.558c0.225,0.043,0.456,0.067,0.692,0.067c0.336,0,0.662-0.044,0.971-0.128
	c-1.685-0.338-2.954-1.826-2.954-3.612c0-0.015,0-0.031,0.001-0.046c0.496,0.275,1.064,0.442,1.667,0.46
	c-0.987-0.659-1.637-1.787-1.637-3.064c0-0.676,0.181-1.309,0.498-1.853c1.815,2.229,4.53,3.695,7.59,3.849
	c-0.063-0.27-0.095-0.55-0.095-0.839c0-2.034,1.649-3.683,3.682-3.683c1.061,0,2.016,0.447,2.688,1.163
	c0.84-0.165,1.626-0.471,2.34-0.894c-0.276,0.86-0.858,1.581-1.622,2.038c0.746-0.089,1.457-0.287,2.115-0.58
	C56.573,11.171,55.948,11.82,55.229,12.338"/>
<path fill="#989898" d="M77.748,25.568c0,2.346-1.45,4.2-5.555,4.349c-2.406-1.368-4.422-3.342-5.841-5.714
	c0.74-1.828,3.053-3.221,5.697-3.191c0.751,0.007,1.451,0.128,2.086,0.334c1.747,1.214,3.156,1.973,3.51,3.358
	C77.71,24.984,77.748,25.273,77.748,25.568 M80.09,0c-4.623,0-8.787,1.962-11.708,5.097c1.154-0.639,2.517-1.02,3.966-1.02h8.013
	l-1.79,1.88h-2.104c1.484,0.85,2.274,2.601,2.274,4.531c0,1.772-0.982,3.2-2.368,4.283c-1.353,1.057-1.61,1.499-1.61,2.398
	c0,0.767,1.617,1.91,2.36,2.467c2.588,1.941,3.112,3.162,3.112,5.59c0,2.46-2.156,4.909-5.81,5.742
	C76.188,31.634,78.096,32,80.09,32c8.837,0,16-7.163,16-16C96.09,7.164,88.927,0,80.09,0 M88.09,12v4h-2v-4h-4v-2h4V6h2v4h4v2H88.09
	z M75.521,10.609c0.372,2.837-0.871,4.662-3.03,4.598c-2.16-0.065-4.212-2.047-4.585-4.883c-0.373-2.837,1.075-5.008,3.235-4.943
	C73.3,5.445,75.148,7.773,75.521,10.609 M70.993,20.065c-2.334,0-4.316,0.805-5.714,1.996c-0.765-1.87-1.189-3.916-1.189-6.061
	c0-1.774,0.29-3.48,0.823-5.075c0.23,3.108,2.417,5.507,6.03,5.507c0.266,0,0.524-0.014,0.777-0.032
	c-0.248,0.476-0.425,1.006-0.425,1.562c0,0.936,0.515,1.471,1.152,2.09C71.965,20.052,71.501,20.065,70.993,20.065"/>
<path fill="#989898" d="M112.09,0c-8.821,0-16,7.177-16,16c0,8.821,7.178,16,16,16c8.822,0,16-7.179,16-16
	C128.089,7.177,120.914,0,112.09,0 M116.069,16.563h-2.603v9.278h-3.857v-9.278h-1.834v-3.279h1.834v-2.121
	c0-1.519,0.722-3.893,3.893-3.893l2.858,0.011v3.183h-2.075c-0.338,0-0.817,0.169-0.817,0.893v1.927h2.938L116.069,16.563z"/>
<path fill="#676767" d="M16,32C7.16,32,0,39.16,0,48c0,8.84,7.16,16,16,16s16-7.16,16-16C32,39.16,24.84,32,16,32 M12,56.969H8v-12
	h4V56.969z M9.86,43.969H9.83c-1.28,0-2.11-1.464-2.11-2.564c0-1.12,0.86-2.273,2.16-2.273c1.31,0,2.12,1.294,2.14,2.414
	C12.02,42.656,11.19,43.969,9.86,43.969 M26,56.969h-4V49.73c0-1.55-0.62-2.6-2-2.6c-1.06,0-1.75,0.71-2.01,1.4
	C17.88,48.77,18,49.11,18,49.46v7.509h-4.11c0,0,0.05-11,0-12H18V46c0-0.78,1.5-1.89,3.52-1.89c2.51,0,4.48,1.65,4.48,5.18V56.969z"
	/>
<path fill="#676767" d="M48,32c-8.822,0-16,7.178-16,16c0,8.822,7.178,16,16,16c8.822,0,16-7.178,16-16C64,39.178,56.823,32,48,32
	 M55.138,44.338c0.007,0.159,0.011,0.318,0.011,0.478c0,4.867-3.703,10.476-10.479,10.476c-2.079,0-4.016-0.607-5.645-1.653
	c0.288,0.034,0.582,0.052,0.879,0.052c1.726,0,3.313-0.589,4.574-1.577c-1.612-0.029-2.972-1.094-3.441-2.558
	c0.225,0.043,0.456,0.067,0.692,0.067c0.336,0,0.662-0.044,0.971-0.128c-1.685-0.338-2.954-1.826-2.954-3.612
	c0-0.015,0-0.031,0.001-0.046c0.496,0.275,1.064,0.442,1.667,0.46c-0.987-0.659-1.637-1.787-1.637-3.064
	c0-0.676,0.181-1.309,0.498-1.853c1.815,2.229,4.53,3.695,7.59,3.849c-0.063-0.27-0.095-0.55-0.095-0.839
	c0-2.034,1.649-3.683,3.682-3.683c1.06,0,2.015,0.447,2.688,1.163c0.84-0.165,1.626-0.471,2.34-0.894
	c-0.277,0.86-0.859,1.581-1.622,2.038c0.746-0.089,1.457-0.287,2.116-0.58C56.482,43.171,55.858,43.82,55.138,44.338"/>
<path fill="#676767" d="M77.657,57.568c0,2.346-1.45,4.2-5.555,4.349c-2.406-1.368-4.422-3.342-5.841-5.714
	c0.74-1.828,3.053-3.221,5.697-3.191c0.751,0.007,1.451,0.128,2.086,0.334c1.747,1.214,3.156,1.973,3.51,3.358
	C77.62,56.984,77.657,57.273,77.657,57.568 M80,32c-4.623,0-8.787,1.962-11.708,5.097c1.154-0.639,2.517-1.02,3.966-1.02h8.013
	l-1.79,1.88h-2.104c1.484,0.85,2.274,2.601,2.274,4.531c0,1.772-0.982,3.2-2.368,4.283c-1.353,1.057-1.61,1.499-1.61,2.398
	c0,0.767,1.617,1.91,2.36,2.467c2.588,1.941,3.112,3.162,3.112,5.59c0,2.46-2.155,4.909-5.809,5.742C76.097,63.634,78.006,64,80,64
	c8.837,0,16-7.163,16-16C96,39.164,88.837,32,80,32 M88,44v4h-2v-4h-4v-2h4v-4h2v4h4v2H88z M75.431,42.609
	c0.372,2.837-0.871,4.662-3.03,4.598c-2.16-0.065-4.212-2.047-4.585-4.883c-0.373-2.837,1.075-5.008,3.235-4.943
	C73.21,37.445,75.058,39.773,75.431,42.609 M70.903,52.065c-2.334,0-4.316,0.805-5.714,1.996C64.424,52.191,64,50.145,64,48
	c0-1.774,0.29-3.48,0.823-5.075c0.23,3.108,2.417,5.507,6.03,5.507c0.266,0,0.524-0.014,0.777-0.032
	c-0.248,0.476-0.425,1.006-0.425,1.562c0,0.936,0.515,1.471,1.152,2.09C71.875,52.052,71.411,52.065,70.903,52.065"/>
<path fill="#676767" d="M112,32c-8.822,0-16,7.177-16,16c0,8.821,7.178,16,16,16c8.822,0,16-7.179,16-16
	C128,39.177,120.823,32,112,32 M115.979,48.563h-2.603v9.278h-3.857v-9.278h-1.834v-3.279h1.834v-2.121
	c0-1.519,0.722-3.893,3.892-3.893l2.859,0.011v3.183h-2.075c-0.338,0-0.818,0.169-0.818,0.893v1.927h2.939L115.979,48.563z"/>
<rect x="129.048" y="13" fill="#595555" width="2" height="3"/>
<rect x="130.048" y="12" fill="#595555" width="2" height="2"/>
<rect x="131.048" y="11" fill="#595555" width="2" height="2"/>
<rect x="132.048" y="10" fill="#595555" width="2" height="2"/>
<rect x="133.048" y="9" fill="#595555" width="2" height="2"/>
<rect x="134.048" y="8" fill="#595555" width="2" height="2"/>
<rect x="135.048" y="7" fill="#595555" width="2" height="2"/>
<rect x="136.048" y="6" fill="#595555" width="2" height="2"/>
<rect x="137.048" y="5" fill="#595555" width="2" height="2"/>
<rect x="138.048" y="4" fill="#595555" width="2" height="2"/>
<rect x="139.048" y="3" fill="#595555" width="2" height="2"/>
<rect x="140.048" y="2" fill="#595555" width="2" height="2"/>
<rect x="141.048" y="1" fill="#595555" width="2" height="2"/>
<polygon fill="#595555" points="144.048,1 144.048,2 142.048,2 142.048,0 143.048,0 143.048,1 "/>
<rect x="130.048" y="15" fill="#595555" width="2" height="2"/>
<rect x="131.048" y="16" fill="#595555" width="2" height="2"/>
<rect x="132.048" y="17" fill="#595555" width="2" height="2"/>
<rect x="133.048" y="18" fill="#595555" width="2" height="2"/>
<rect x="134.048" y="19" fill="#595555" width="2" height="2"/>
<rect x="135.048" y="20" fill="#595555" width="2" height="2"/>
<rect x="136.048" y="21" fill="#595555" width="2" height="2"/>
<rect x="137.048" y="22" fill="#595555" width="2" height="2"/>
<rect x="138.048" y="23" fill="#595555" width="2" height="2"/>
<rect x="139.048" y="24" fill="#595555" width="2" height="2"/>
<rect x="140.048" y="25" fill="#595555" width="2" height="2"/>
<rect x="141.048" y="26" fill="#595555" width="2" height="2"/>
<polygon fill="#595555" points="144.048,28 144.048,27 142.048,27 142.048,29 143.048,29 143.048,28 "/>
<rect x="128.09" y="14.083" fill="#595555" width="2.958" height="0.917"/>
<rect x="157.09" y="13" fill="#595555" width="2" height="3"/>
<rect x="156.09" y="15" fill="#595555" width="2" height="2"/>
<rect x="155.09" y="16" fill="#595555" width="2" height="2"/>
<rect x="154.09" y="17" fill="#595555" width="2" height="2"/>
<rect x="153.09" y="18" fill="#595555" width="2" height="2"/>
<rect x="152.09" y="19" fill="#595555" width="2" height="2"/>
<rect x="151.09" y="20" fill="#595555" width="2" height="2"/>
<rect x="150.09" y="21" fill="#595555" width="2" height="2"/>
<rect x="149.09" y="22" fill="#595555" width="2" height="2"/>
<rect x="148.09" y="23" fill="#595555" width="2" height="2"/>
<rect x="147.09" y="24" fill="#595555" width="2" height="2"/>
<rect x="146.09" y="25" fill="#595555" width="2" height="2"/>
<rect x="145.09" y="26" fill="#595555" width="2" height="2"/>
<polygon fill="#595555" points="144.09,28 144.09,27 146.09,27 146.09,29 145.09,29 145.09,28 "/>
<rect x="156.09" y="12" fill="#595555" width="2" height="2"/>
<rect x="155.09" y="11" fill="#595555" width="2" height="2"/>
<rect x="154.09" y="10" fill="#595555" width="2" height="2"/>
<rect x="153.09" y="9" fill="#595555" width="2" height="2"/>
<rect x="152.09" y="8" fill="#595555" width="2" height="2"/>
<rect x="151.09" y="7" fill="#595555" width="2" height="2"/>
<rect x="150.09" y="6" fill="#595555" width="2" height="2"/>
<rect x="149.09" y="5" fill="#595555" width="2" height="2"/>
<rect x="148.09" y="4" fill="#595555" width="2" height="2"/>
<rect x="147.09" y="3" fill="#595555" width="2" height="2"/>
<rect x="146.09" y="2" fill="#595555" width="2" height="2"/>
<rect x="145.09" y="1" fill="#595555" width="2" height="2"/>
<polygon fill="#595555" points="144.09,1 144.09,2 146.09,2 146.09,0 145.09,0 145.09,1 "/>
<rect x="157.09" y="14" fill="#595555" width="2.958" height="0.917"/>
<polygon fill="#4286C6" points="161.09,5 161.09,4 162.09,4 162.09,3 163.09,3 163.09,2 164.09,2 164.09,1 165.09,1 165.09,0 
	166.09,0 166.09,1 167.09,1 167.09,2 166.09,2 166.09,3 165.09,3 165.09,4 164.09,4 164.09,5 163.09,5 163.09,6 164.09,6 164.09,7 
	165.09,7 165.09,8 166.09,8 166.09,9 167.09,9 167.09,10 166.09,10 166.09,11 165.09,11 165.09,10 164.09,10 164.09,9 163.09,9 
	163.09,8 162.09,8 162.09,7 161.09,7 161.09,6 160.09,6 160.09,5 "/>
<polygon fill="#4286C6" points="173.09,6 173.09,7 172.09,7 172.09,8 171.09,8 171.09,9 170.09,9 170.09,10 169.09,10 169.09,11 
	168.09,11 168.09,10 167.09,10 167.09,9 168.09,9 168.09,8 169.09,8 169.09,7 170.09,7 170.09,6 171.09,6 171.09,5 170.09,5 
	170.09,4 169.09,4 169.09,3 168.09,3 168.09,2 167.09,2 167.09,1 168.09,1 168.09,0 169.09,0 169.09,1 170.09,1 170.09,2 171.09,2 
	171.09,3 172.09,3 172.09,4 173.09,4 173.09,5 174.09,5 174.09,6 "/>
<rect x="175.09" y="1" fill="#999DA9" width="1" height="4"/>
<rect x="179.09" y="1" fill="#999DA9" width="1" height="4"/>
<rect x="179.09" y="1" fill="#999DA9" width="1" height="4"/>
<rect x="181.09" fill="#999DA9" width="1" height="5"/>
<rect x="187.09" fill="#999DA9" width="1" height="5"/>
<rect x="199.09" fill="#999DA9" width="1" height="5"/>
<rect x="207.09" fill="#999DA9" width="1" height="5"/>
<rect x="243.09" fill="#999DA9" width="1" height="5"/>
<rect x="225.09" fill="#999DA9" width="1" height="5"/>
<rect x="231.09" fill="#999DA9" width="1" height="5"/>
<rect x="229.09" y="1" fill="#999DA9" width="1" height="3"/>
<rect x="226.09" fill="#999DA9" width="3" height="1"/>
<rect x="226.09" y="4" fill="#999DA9" width="3" height="1"/>
<rect x="203.09" fill="#999DA9" width="1" height="5"/>
<rect x="191.09" fill="#999DA9" width="1" height="5"/>
<rect x="185.09" y="3" fill="#999DA9" width="1" height="2"/>
<rect x="176.09" fill="#999DA9" width="3" height="1"/>
<rect x="182.09" fill="#999DA9" width="3" height="1"/>
<rect x="176.09" y="2" fill="#999DA9" width="3" height="1"/>
<rect x="182.09" y="2" fill="#999DA9" width="3" height="1"/>
<rect x="185.09" y="1" fill="#999DA9" width="1" height="1"/>
<rect x="188.09" y="1" fill="#999DA9" width="1" height="1"/>
<g opacity="0.5">
	<g>
		<defs>
			<rect id="SVGID_1_" x="185.09" width="1" height="1"/>
		</defs>
		<clipPath id="SVGID_2_">
			<use xlink:href="#SVGID_1_"  overflow="visible"/>
		</clipPath>
		<rect x="185.09" clip-path="url(#SVGID_2_)" fill="#999DA9" width="1" height="1"/>
	</g>
</g>
<g opacity="0.5">
	<g>
		<defs>
			<rect id="SVGID_3_" x="179.09" width="1" height="1"/>
		</defs>
		<clipPath id="SVGID_4_">
			<use xlink:href="#SVGID_3_"  overflow="visible"/>
		</clipPath>
		<rect x="179.09" clip-path="url(#SVGID_4_)" fill="#999DA9" width="1" height="1"/>
	</g>
</g>
<g opacity="0.5">
	<g>
		<defs>
			<rect id="SVGID_5_" x="185.09" y="2" width="1" height="1"/>
		</defs>
		<clipPath id="SVGID_6_">
			<use xlink:href="#SVGID_5_"  overflow="visible"/>
		</clipPath>
		<rect x="185.09" y="2" clip-path="url(#SVGID_6_)" fill="#999DA9" width="1" height="1"/>
	</g>
</g>
<g opacity="0.5">
	<g>
		<defs>
			<rect id="SVGID_7_" x="175.09" width="1" height="1"/>
		</defs>
		<clipPath id="SVGID_8_">
			<use xlink:href="#SVGID_7_"  overflow="visible"/>
		</clipPath>
		<rect x="175.09" clip-path="url(#SVGID_8_)" fill="#999DA9" width="1" height="1"/>
	</g>
</g>
<rect x="193.09" y="1" fill="#999DA9" width="1" height="4"/>
<rect x="197.09" y="1" fill="#999DA9" width="1" height="4"/>
<rect x="197.09" y="1" fill="#999DA9" width="1" height="4"/>
<rect x="194.09" fill="#999DA9" width="3" height="1"/>
<rect x="194.09" y="2" fill="#999DA9" width="3" height="1"/>
<g opacity="0.5">
	<g>
		<defs>
			<rect id="SVGID_9_" x="197.09" width="1" height="1"/>
		</defs>
		<clipPath id="SVGID_10_">
			<use xlink:href="#SVGID_9_"  overflow="visible"/>
		</clipPath>
		<rect x="197.09" clip-path="url(#SVGID_10_)" fill="#999DA9" width="1" height="1"/>
	</g>
</g>
<g opacity="0.5">
	<g>
		<defs>
			<rect id="SVGID_11_" x="193.09" width="1" height="1"/>
		</defs>
		<clipPath id="SVGID_12_">
			<use xlink:href="#SVGID_11_"  overflow="visible"/>
		</clipPath>
		<rect x="193.09" clip-path="url(#SVGID_12_)" fill="#999DA9" width="1" height="1"/>
	</g>
</g>
<rect x="211.09" y="1" fill="#999DA9" width="1" height="4"/>
<rect x="215.09" y="1" fill="#999DA9" width="1" height="4"/>
<rect x="215.09" y="1" fill="#999DA9" width="1" height="4"/>
<rect x="212.09" fill="#999DA9" width="3" height="1"/>
<rect x="212.09" y="2" fill="#999DA9" width="3" height="1"/>
<g opacity="0.5">
	<g>
		<defs>
			<rect id="SVGID_13_" x="215.09" width="1" height="1"/>
		</defs>
		<clipPath id="SVGID_14_">
			<use xlink:href="#SVGID_13_"  overflow="visible"/>
		</clipPath>
		<rect x="215.09" clip-path="url(#SVGID_14_)" fill="#999DA9" width="1" height="1"/>
	</g>
</g>
<g opacity="0.5">
	<g>
		<defs>
			<rect id="SVGID_15_" x="229.09" width="1" height="1"/>
		</defs>
		<clipPath id="SVGID_16_">
			<use xlink:href="#SVGID_15_"  overflow="visible"/>
		</clipPath>
		<rect x="229.09" clip-path="url(#SVGID_16_)" fill="#999DA9" width="1" height="1"/>
	</g>
</g>
<g opacity="0.5">
	<g>
		<defs>
			<rect id="SVGID_17_" x="229.09" y="4" width="1" height="1"/>
		</defs>
		<clipPath id="SVGID_18_">
			<use xlink:href="#SVGID_17_"  overflow="visible"/>
		</clipPath>
		<rect x="229.09" y="4" clip-path="url(#SVGID_18_)" fill="#999DA9" width="1" height="1"/>
	</g>
</g>
<g opacity="0.5">
	<g>
		<defs>
			<rect id="SVGID_19_" x="211.09" width="1" height="1"/>
		</defs>
		<clipPath id="SVGID_20_">
			<use xlink:href="#SVGID_19_"  overflow="visible"/>
		</clipPath>
		<rect x="211.09" clip-path="url(#SVGID_20_)" fill="#999DA9" width="1" height="1"/>
	</g>
</g>
<rect x="189.09" y="2" fill="#999DA9" width="1" height="1"/>
<rect x="200.09" y="1" fill="#999DA9" width="1" height="1"/>
<rect x="201.09" y="2" fill="#999DA9" width="1" height="1"/>
<rect x="202.09" y="3" fill="#999DA9" width="1" height="1"/>
<rect x="251.09" fill="#999DA9" width="1" height="5"/>
<rect x="255.09" fill="#999DA9" width="1" height="5"/>
<rect x="252.09" y="1" fill="#999DA9" width="1" height="1"/>
<rect x="253.09" y="2" fill="#999DA9" width="1" height="1"/>
<rect x="254.09" y="3" fill="#999DA9" width="1" height="1"/>
<rect x="221.09" y="3" fill="#999DA9" width="1" height="1"/>
<rect x="217.09" y="1" fill="#999DA9" width="1" height="1"/>
<rect x="190.09" y="1" fill="#999DA9" width="1" height="1"/>
<rect x="205.09" fill="#999DA9" width="5" height="1"/>
<rect x="217.09" fill="#999DA9" width="5" height="1"/>
<rect x="217.09" y="4" fill="#999DA9" width="5" height="1"/>
<rect x="217.09" y="2" fill="#999DA9" width="5" height="1"/>
<rect x="241.09" y="3" fill="#999DA9" width="1" height="1"/>
<rect x="237.09" y="1" fill="#999DA9" width="1" height="1"/>
<rect x="237.09" fill="#999DA9" width="5" height="1"/>
<rect x="237.09" y="4" fill="#999DA9" width="5" height="1"/>
<rect x="237.09" y="2" fill="#999DA9" width="5" height="1"/>
<rect x="249.09" y="3" fill="#999DA9" width="1" height="1"/>
<rect x="245.09" y="1" fill="#999DA9" width="1" height="3"/>
<rect x="245.09" fill="#999DA9" width="5" height="1"/>
<rect x="245.09" y="4" fill="#999DA9" width="5" height="1"/>
<rect x="247.09" y="2" fill="#999DA9" width="3" height="1"/>
<rect x="231.09" fill="#999DA9" width="5" height="1"/>
<rect x="231.09" y="4" fill="#999DA9" width="5" height="1"/>
<rect x="231.09" y="2" fill="#999DA9" width="5" height="1"/>
<path fill="#4286C6" d="M133.6,31.4V29l-5.6,5.6l5.6,5.6v-2.4l-3.199-3.2L133.6,31.4z M138.4,32.201V29l-5.601,5.6l5.601,5.6v-3.28
	c4,0,6.8,1.28,8.8,4.08C146.4,37,144,33,138.4,32.201"/>
<rect x="160.09" y="11" fill="#4286C6" width="54" height="54"/>
<path fill="#FFFFFF" d="M182.745,37.375c1.334,0.87,1.914,2.262,1.914,3.77c0,2.784-2.028,4.755-4.813,4.755
	c-2.551,0-4.756-1.681-4.756-4.755c0-1.45,0.522-2.668,1.276-3.828l4.233-6.148h4.756L182.745,37.375z M194.741,37.375
	c1.334,0.87,1.914,2.262,1.914,3.77c0,2.784-2.03,4.755-4.813,4.755c-2.553,0-4.756-1.681-4.756-4.755
	c0-1.45,0.521-2.668,1.275-3.828l4.234-6.148h4.756L194.741,37.375z"/>
<path fill="#0384B1" d="M16,64C7.16,64,0,71.16,0,80c0,8.84,7.16,16,16,16s16-7.16,16-16C32,71.16,24.84,64,16,64 M12,88.969H8v-12
	h4V88.969z M9.86,75.969H9.83c-1.28,0-2.11-1.464-2.11-2.564c0-1.12,0.86-2.273,2.16-2.273c1.31,0,2.12,1.294,2.14,2.414
	C12.02,74.656,11.19,75.969,9.86,75.969 M26,88.969h-4V81.73c0-1.55-0.62-2.6-2-2.6c-1.06,0-1.75,0.71-2.01,1.4
	C17.88,80.77,18,81.11,18,81.46v7.509h-4.11c0,0,0.05-11,0-12H18V78c0-0.78,1.5-1.89,3.52-1.89c2.51,0,4.48,1.65,4.48,5.18V88.969z"
	/>
<path fill="#2AAAE1" d="M48,64c-8.822,0-16,7.178-16,16c0,8.822,7.178,16,16,16c8.822,0,16-7.178,16-16C64,71.178,56.823,64,48,64
	 M55.138,76.338c0.007,0.159,0.011,0.318,0.011,0.478c0,4.867-3.703,10.476-10.479,10.476c-2.079,0-4.016-0.607-5.645-1.653
	c0.288,0.034,0.582,0.052,0.879,0.052c1.726,0,3.313-0.589,4.574-1.577c-1.612-0.029-2.972-1.094-3.441-2.558
	c0.225,0.043,0.456,0.067,0.692,0.067c0.336,0,0.662-0.044,0.971-0.128c-1.685-0.338-2.954-1.826-2.954-3.612
	c0-0.015,0-0.031,0.001-0.046c0.496,0.275,1.064,0.442,1.667,0.46c-0.987-0.659-1.637-1.787-1.637-3.064
	c0-0.676,0.181-1.309,0.498-1.853c1.815,2.229,4.53,3.695,7.59,3.849c-0.063-0.27-0.095-0.55-0.095-0.839
	c0-2.034,1.649-3.683,3.682-3.683c1.06,0,2.015,0.447,2.688,1.163c0.84-0.165,1.626-0.471,2.34-0.894
	c-0.277,0.86-0.859,1.581-1.622,2.038c0.746-0.089,1.457-0.287,2.116-0.58C56.482,75.171,55.858,75.82,55.138,76.338"/>
<path fill="#DD4B38" d="M77.657,89.568c0,2.346-1.45,4.2-5.555,4.349c-2.406-1.368-4.422-3.342-5.841-5.714
	c0.74-1.828,3.053-3.221,5.697-3.191c0.751,0.007,1.451,0.128,2.086,0.334c1.747,1.214,3.156,1.973,3.51,3.358
	C77.62,88.984,77.657,89.273,77.657,89.568 M80,64c-4.623,0-8.787,1.962-11.708,5.097c1.154-0.639,2.517-1.02,3.966-1.02h8.013
	l-1.79,1.88h-2.104c1.484,0.85,2.274,2.601,2.274,4.531c0,1.772-0.982,3.2-2.368,4.283c-1.353,1.057-1.61,1.499-1.61,2.398
	c0,0.767,1.617,1.91,2.36,2.467c2.588,1.941,3.112,3.162,3.112,5.59c0,2.46-2.155,4.909-5.809,5.742C76.097,95.634,78.006,96,80,96
	c8.837,0,16-7.163,16-16C96,71.164,88.837,64,80,64 M88,76v4h-2v-4h-4v-2h4v-4h2v4h4v2H88z M75.431,74.609
	c0.372,2.837-0.871,4.662-3.03,4.598c-2.16-0.065-4.212-2.047-4.585-4.883c-0.373-2.837,1.075-5.008,3.235-4.943
	C73.21,69.445,75.058,71.773,75.431,74.609 M70.903,84.065c-2.334,0-4.316,0.805-5.714,1.996C64.424,84.191,64,82.145,64,80
	c0-1.774,0.29-3.48,0.823-5.075c0.23,3.108,2.417,5.507,6.03,5.507c0.266,0,0.524-0.014,0.777-0.032
	c-0.248,0.476-0.425,1.006-0.425,1.562c0,0.936,0.515,1.471,1.152,2.09C71.875,84.052,71.411,84.065,70.903,84.065"/>
<path fill="#3B5999" d="M112,64c-8.822,0-16,7.177-16,16c0,8.821,7.178,16,16,16s16-7.179,16-16C128,71.177,120.823,64,112,64
	 M115.979,80.563h-2.603v9.278h-3.856v-9.278h-1.834v-3.279h1.834v-2.121c0-1.519,0.722-3.893,3.892-3.893l2.858,0.011v3.183h-2.074
	c-0.338,0-0.818,0.169-0.818,0.893v1.927h2.939L115.979,80.563z"/>
</svg>
