<svg version="1.0" xmlns="http://www.w3.org/2000/svg" width="933.333" height="933.333" viewBox="0 0 700 700"><path d="M386.8 137.5c-.2.2-4.2.5-8.9.9-11.8.9-29.5 4-40.4 7.1-38.1 10.8-68.6 31.9-89.6 62-4.5 6.5-11.3 17.7-11.5 19-.1.6-1.1 2.5-2.2 4.4l-2 3.3v-46.7c0-29.9-.4-47-1-47.4-.6-.3-14.9-.6-31.9-.5l-30.8.1-.2 215.6-.1 215.7 2.1.1c10.3.3 61.1-.1 61.4-.5.3-.3.5-52.4.5-115.8.1-63.4.4-118.2.8-121.8 1-8.1 2-14.1 2.6-15.9.2-.8.7-3 1-4.8.7-4.4 4.6-17.2 7.3-24.3 15.7-40.1 44.5-68.2 82.8-80.9 8-2.7 14.3-4.1 30-6.9 6.8-1.2 34.4-1.3 41.3-.2 3 .5 7 1.2 8.7 1.5 1.8.3 5 .9 7 1.4 2.1.6 5.6 1.4 7.8 2 21.6 5.5 45.5 22.8 58 42.1 6.5 10 13.8 27 15.9 37.5 1.8 8.5 2.6 13.1 3.2 19.6.4 4 .8 65.8.8 137.1l.1 129.8h3c4 .1 48.5.1 55.5 0h5.5l-.1-141.8c0-77.9-.4-143.5-.7-145.7-.4-2.2-.9-6.3-1.2-9-.3-2.8-.7-6.1-1-7.5-.3-1.4-.7-3.6-1-5-3.5-18.6-10.1-37.4-17.5-50-1.7-2.8-3-5.3-3-5.7 0-.3-2-3.3-4.4-6.7-25.9-36-62.2-55.8-112.6-61.2-6-.6-34.7-1.3-35.2-.9z"/></svg>