<svg xmlns="http://www.w3.org/2000/svg" width="256" height="132.225"><path fill="#989898" d="M16 0C7.16 0 0 7.16 0 16s7.16 16 16 16 16-7.16 16-16S24.84 0 16 0m-4.016 24.969h-4v-12h4v12zm-2.124-13h-.03c-1.28 0-2.11-1.464-2.11-2.562 0-1.12.86-2.273 2.16-2.273 1.31 0 2.12 1.294 2.14 2.414 0 1.108-.83 2.421-2.16 2.421m16.124 13h-4V17.73c0-1.551-.612-2.601-1.992-2.601-1.061 0-1.754.71-2.014 1.4-.111.24.006.58.006.93v7.509H13.89s.05-11 0-12h4.095V14c0-.78 1.5-1.89 3.52-1.89 2.51 0 4.48 1.65 4.48 5.18l-.001 7.679zM48.09 0c-8.822 0-16 7.178-16 16s7.178 16 16 16c8.823 0 16-7.178 16-16 .001-8.822-7.177-16-16-16m7.139 12.338c.007.159.011.318.011.478 0 4.867-3.703 10.476-10.479 10.476-2.079 0-4.016-.607-5.645-1.653a7.389 7.389 0 005.453-1.525 3.686 3.686 0 01-3.441-2.558 3.681 3.681 0 001.663-.061 3.684 3.684 0 01-2.954-3.612l.001-.046a3.66 3.66 0 001.667.46 3.68 3.68 0 01-1.637-3.064c0-.676.181-1.309.498-1.853a10.452 10.452 0 007.59 3.849 3.683 3.683 0 016.275-3.359 7.367 7.367 0 002.34-.894 3.692 3.692 0 01-1.622 2.038 7.327 7.327 0 002.115-.58 7.432 7.432 0 01-1.835 1.904"/><path fill="#989898" d="M77.748 25.568c0 2.346-1.45 4.2-5.555 4.349a16.072 16.072 0 01-5.841-5.714c.74-1.828 3.053-3.221 5.697-3.191a6.959 6.959 0 012.086.334c1.747 1.214 3.156 1.973 3.51 3.358.065.28.103.569.103.864M80.09 0a15.956 15.956 0 00-11.708 5.097 8.2 8.2 0 013.966-1.02h8.013l-1.79 1.88h-2.104c1.484.85 2.274 2.601 2.274 4.531 0 1.772-.982 3.2-2.368 4.283-1.353 1.057-1.61 1.499-1.61 2.398 0 .767 1.617 1.91 2.36 2.467 2.588 1.941 3.112 3.162 3.112 5.59 0 2.46-2.156 4.909-5.81 5.742A15.993 15.993 0 0080.09 32c8.837 0 16-7.163 16-16 0-8.836-7.163-16-16-16m8 12v4h-2v-4h-4v-2h4V6h2v4h4v2h-4zm-12.569-1.391c.372 2.837-.871 4.662-3.03 4.598-2.16-.065-4.212-2.047-4.585-4.883-.373-2.837 1.075-5.008 3.235-4.943 2.159.064 4.007 2.392 4.38 5.228m-4.528 9.456c-2.334 0-4.316.805-5.714 1.996A15.971 15.971 0 0164.09 16c0-1.774.29-3.48.823-5.075.23 3.108 2.417 5.507 6.03 5.507.266 0 .524-.014.777-.032-.248.476-.425 1.006-.425 1.562 0 .936.515 1.471 1.152 2.09-.482 0-.946.013-1.454.013M112.09 0c-8.821 0-16 7.177-16 16 0 8.821 7.178 16 16 16s16-7.179 16-16c-.001-8.823-7.176-16-16-16m3.979 16.563h-2.603v9.278h-3.857v-9.278h-1.834v-3.279h1.834v-2.121c0-1.519.722-3.893 3.893-3.893l2.858.011v3.183h-2.075c-.338 0-.817.169-.817.893v1.927h2.938l-.337 3.279z"/><path fill="#676767" d="M16 32C7.16 32 0 39.16 0 48s7.16 16 16 16 16-7.16 16-16-7.16-16-16-16m-4 24.969H8v-12h4v12zm-2.14-13h-.03c-1.28 0-2.11-1.464-2.11-2.564 0-1.12.86-2.273 2.16-2.273 1.31 0 2.12 1.294 2.14 2.414 0 1.11-.83 2.423-2.16 2.423m16.14 13h-4V49.73c0-1.55-.62-2.602-2-2.602-1.06 0-1.75.71-2.01 1.398-.11.244.01.583.01.934v7.509h-4.11s.05-11 0-12H18V46c0-.78 1.5-1.89 3.52-1.89 2.51 0 4.48 1.65 4.48 5.18v7.679zM48 32c-8.822 0-16 7.178-16 16s7.178 16 16 16 16-7.178 16-16-7.177-16-16-16m7.138 12.338c.007.159.011.318.011.478 0 4.868-3.703 10.476-10.479 10.476-2.079 0-4.016-.606-5.645-1.653a7.4 7.4 0 005.453-1.523 3.688 3.688 0 01-3.441-2.559 3.681 3.681 0 001.663-.062 3.684 3.684 0 01-2.954-3.612l.001-.046a3.66 3.66 0 001.667.46 3.68 3.68 0 01-1.637-3.064c0-.676.181-1.309.498-1.853a10.452 10.452 0 007.59 3.849 3.683 3.683 0 016.275-3.359 7.367 7.367 0 002.34-.894 3.7 3.7 0 01-1.622 2.038 7.343 7.343 0 002.116-.58 7.436 7.436 0 01-1.836 1.904"/><path fill="#676767" d="M77.657 57.568c0 2.346-1.45 4.199-5.555 4.349a16.072 16.072 0 01-5.841-5.714c.74-1.828 3.053-3.221 5.697-3.191a7.023 7.023 0 012.086.334c1.747 1.215 3.156 1.973 3.51 3.358.066.28.103.569.103.864M80 32a15.956 15.956 0 00-11.708 5.097 8.2 8.2 0 013.966-1.02h8.013l-1.79 1.88h-2.104c1.484.85 2.274 2.601 2.274 4.531 0 1.772-.982 3.2-2.368 4.283-1.353 1.057-1.61 1.499-1.61 2.398 0 .767 1.617 1.91 2.36 2.467 2.588 1.941 3.112 3.162 3.112 5.591 0 2.459-2.155 4.908-5.809 5.741A15.98 15.98 0 0080 64c8.837 0 16-7.163 16-16 0-8.836-7.163-16-16-16m8 12v4h-2v-4h-4v-2h4v-4h2v4h4v2h-4zm-12.569-1.391c.372 2.837-.871 4.662-3.03 4.598-2.16-.065-4.212-2.047-4.585-4.883-.373-2.837 1.075-5.008 3.235-4.943 2.159.064 4.007 2.392 4.38 5.228m-4.528 9.455c-2.334 0-4.316.806-5.714 1.996A15.962 15.962 0 0164 48c0-1.774.29-3.48.823-5.075.23 3.108 2.417 5.507 6.03 5.507.266 0 .524-.014.777-.032-.248.476-.425 1.006-.425 1.562 0 .937.515 1.472 1.152 2.09-.482 0-.946.012-1.454.012M112 32c-8.822 0-16 7.177-16 16 0 8.82 7.178 16 16 16s16-7.18 16-16c0-8.823-7.177-16-16-16m3.979 16.562h-2.603v9.277h-3.857v-9.277h-1.834v-3.278h1.834v-2.121c0-1.519.722-3.893 3.892-3.893l2.859.011v3.183h-2.075c-.338 0-.818.169-.818.893v1.927h2.939l-.337 3.278z"/><path fill="#0384B1" d="M16 64C7.16 64 0 71.16 0 80s7.16 16 16 16 16-7.16 16-16-7.16-16-16-16m-4 24.969H8v-12h4v12zm-2.14-13h-.03c-1.28 0-2.11-1.464-2.11-2.564 0-1.118.86-2.271 2.16-2.271 1.31 0 2.12 1.294 2.14 2.414 0 1.108-.83 2.421-2.16 2.421m16.14 13h-4V81.73c0-1.551-.62-2.602-2-2.602-1.06 0-1.75.71-2.01 1.398-.11.244.01.583.01.934v7.509h-4.11s.05-11 0-12H18V78c0-.779 1.5-1.891 3.52-1.891 2.51 0 4.48 1.649 4.48 5.181v7.679z"/><path fill="#2AAAE1" d="M48 64c-8.822 0-16 7.178-16 16s7.178 16 16 16 16-7.178 16-16-7.177-16-16-16m7.138 12.338c.007.159.011.318.011.479 0 4.867-3.703 10.477-10.479 10.477-2.079 0-4.016-.605-5.645-1.652a7.39 7.39 0 005.453-1.525 3.685 3.685 0 01-3.441-2.557 3.7 3.7 0 001.663-.063 3.684 3.684 0 01-2.954-3.612l.001-.046a3.698 3.698 0 001.667.46 3.676 3.676 0 01-1.637-3.063c0-.676.181-1.31.498-1.854a10.457 10.457 0 007.59 3.85 3.684 3.684 0 016.275-3.36 7.393 7.393 0 002.34-.895 3.702 3.702 0 01-1.622 2.037 7.343 7.343 0 002.116-.58 7.436 7.436 0 01-1.836 1.904"/><path fill="#DD4B38" d="M77.657 89.568c0 2.346-1.45 4.199-5.555 4.349a16.072 16.072 0 01-5.841-5.714c.74-1.828 3.053-3.221 5.697-3.191a7.023 7.023 0 012.086.334c1.747 1.215 3.156 1.973 3.51 3.358.066.28.103.569.103.864M80 64a15.953 15.953 0 00-11.708 5.098 8.19 8.19 0 013.966-1.021h8.013l-1.79 1.88h-2.104c1.484.85 2.274 2.602 2.274 4.531 0 1.771-.982 3.199-2.368 4.283-1.353 1.057-1.61 1.498-1.61 2.396 0 .768 1.617 1.91 2.36 2.467 2.588 1.941 3.112 3.162 3.112 5.592 0 2.459-2.155 4.907-5.809 5.74A15.937 15.937 0 0080 96c8.837 0 16-7.163 16-16 0-8.836-7.163-16-16-16m8 12v4h-2v-4h-4v-2h4v-4h2v4h4v2h-4zm-12.569-1.391c.372 2.836-.871 4.662-3.03 4.598-2.16-.064-4.212-2.047-4.585-4.883-.373-2.838 1.075-5.008 3.235-4.943 2.159.064 4.007 2.392 4.38 5.228m-4.528 9.455c-2.334 0-4.316.806-5.714 1.996A15.962 15.962 0 0164 80c0-1.773.29-3.48.823-5.075.23 3.108 2.417 5.507 6.03 5.507.266 0 .524-.014.777-.031-.248.477-.425 1.007-.425 1.562 0 .938.515 1.473 1.152 2.09-.482-.001-.946.011-1.454.011"/><path fill="#3B5999" d="M112 64c-8.822 0-16 7.177-16 16 0 8.82 7.178 16 16 16s16-7.18 16-16c0-8.823-7.177-16-16-16m3.979 16.562h-2.603v9.277h-3.856v-9.277h-1.834v-3.278h1.834v-2.121c0-1.519.722-3.894 3.892-3.894l2.858.012v3.183h-2.074c-.338 0-.818.169-.818.894v1.928h2.939l-.338 3.276z"/><path fill="#989898" d="M144 0c-8.837 0-16 7.164-16 16 0 8.837 7.163 16 16 16s16-7.163 16-16c0-8.836-7.163-16-16-16zm9.502 25.502a13.422 13.422 0 01-5.508 3.334v-2.398c0-1.261-.433-2.188-1.298-2.781.543-.052 1.039-.125 1.492-.219s.934-.229 1.438-.406a7.132 7.132 0 001.358-.633 5.617 5.617 0 001.156-.953c.371-.391.68-.833.93-1.328.25-.495.449-1.088.595-1.781s.219-1.456.219-2.289c0-1.615-.526-2.99-1.577-4.125.479-1.25.426-2.609-.156-4.078l-.392-.047c-.271-.031-.758.083-1.461.344-.703.261-1.491.688-2.366 1.281a14.372 14.372 0 00-3.859-.516c-1.344 0-2.625.172-3.844.516a13.556 13.556 0 00-1.57-.93c-.495-.245-.891-.412-1.188-.5a4.132 4.132 0 00-.827-.164 2.98 2.98 0 00-.492-.016.993.993 0 00-.156.031c-.583 1.479-.637 2.838-.156 4.078-1.052 1.135-1.578 2.51-1.578 4.125 0 .833.072 1.596.219 2.289s.344 1.287.594 1.781.561.938.931 1.328c.37.39.755.708 1.156.953.401.244.854.455 1.358.633.506.178.984.312 1.438.406s.95.167 1.491.219c-.854.583-1.28 1.511-1.28 2.781v2.444a13.377 13.377 0 01-5.666-3.38 13.432 13.432 0 01-2.881-4.272c-.699-1.655-1.056-3.414-1.056-5.229s.355-3.575 1.056-5.229c.677-1.6 1.646-3.037 2.881-4.272s2.673-2.204 4.272-2.881c1.654-.7 3.414-1.055 5.229-1.055s3.574.355 5.229 1.055a13.377 13.377 0 014.272 2.881 13.432 13.432 0 012.881 4.272c.699 1.655 1.056 3.414 1.056 5.229s-.355 3.575-1.056 5.229a13.467 13.467 0 01-2.884 4.273z"/><path fill="#676767" d="M144 32c-8.837 0-16 7.164-16 16 0 8.837 7.163 16 16 16s16-7.163 16-16c0-8.836-7.163-16-16-16zm9.502 25.502a13.422 13.422 0 01-5.508 3.334v-2.398c0-1.261-.433-2.188-1.298-2.78a13.606 13.606 0 001.492-.22c.453-.094.934-.229 1.438-.405s.958-.39 1.358-.634a5.585 5.585 0 001.156-.953c.371-.391.68-.834.93-1.327.25-.494.449-1.089.595-1.781s.219-1.455.219-2.289c0-1.615-.526-2.99-1.577-4.125.479-1.25.426-2.609-.156-4.078l-.392-.047c-.271-.031-.758.083-1.461.344-.703.261-1.491.688-2.366 1.281a14.372 14.372 0 00-3.859-.516c-1.344 0-2.625.172-3.844.516a13.556 13.556 0 00-1.57-.93c-.495-.245-.891-.412-1.188-.5a4.132 4.132 0 00-.827-.164 2.98 2.98 0 00-.492-.016.993.993 0 00-.156.031c-.583 1.479-.637 2.838-.156 4.078-1.052 1.135-1.578 2.51-1.578 4.125 0 .834.072 1.596.219 2.289s.344 1.287.594 1.781.561.938.931 1.328c.37.39.755.709 1.156.953s.854.455 1.358.633c.506.178.984.312 1.438.406.454.094.95.166 1.491.219-.854.583-1.28 1.511-1.28 2.781v2.443a13.377 13.377 0 01-5.666-3.38 13.432 13.432 0 01-2.881-4.272A13.364 13.364 0 01130.566 48a13.4 13.4 0 013.937-9.501 13.41 13.41 0 014.272-2.881c1.654-.7 3.414-1.055 5.229-1.055s3.574.355 5.229 1.055a13.377 13.377 0 014.272 2.881 13.432 13.432 0 012.881 4.272A13.367 13.367 0 01157.442 48c0 1.814-.355 3.574-1.056 5.229a13.456 13.456 0 01-2.884 4.273z"/><path d="M144 64c-8.837 0-16 7.164-16 16 0 8.837 7.163 16 16 16s16-7.163 16-16c0-8.836-7.163-16-16-16zm9.502 25.502a13.422 13.422 0 01-5.508 3.334v-2.398c0-1.261-.433-2.188-1.298-2.78a13.606 13.606 0 001.492-.22c.453-.094.934-.229 1.438-.405s.958-.39 1.358-.634a5.585 5.585 0 001.156-.953c.371-.391.68-.834.93-1.327.25-.494.449-1.089.595-1.781s.219-1.455.219-2.289c0-1.614-.526-2.989-1.577-4.125.479-1.25.426-2.608-.156-4.078l-.392-.047c-.271-.03-.758.084-1.461.345-.703.26-1.491.688-2.366 1.28a14.372 14.372 0 00-3.859-.516c-1.344 0-2.625.172-3.844.516a13.277 13.277 0 00-1.57-.93c-.495-.244-.891-.412-1.188-.5a3.996 3.996 0 00-.827-.164 3.443 3.443 0 00-.492-.017.993.993 0 00-.156.031c-.583 1.479-.637 2.838-.156 4.078-1.052 1.135-1.578 2.51-1.578 4.125 0 .834.072 1.596.219 2.289s.344 1.287.594 1.781.561.938.931 1.328c.37.39.755.709 1.156.953s.854.455 1.358.633c.506.178.984.312 1.438.406.454.094.95.166 1.491.219-.854.583-1.28 1.511-1.28 2.781v2.443a13.377 13.377 0 01-5.666-3.38 13.432 13.432 0 01-2.881-4.272c-.699-1.654-1.056-3.414-1.056-5.229s.355-3.574 1.056-5.229a13.377 13.377 0 012.881-4.272 13.443 13.443 0 014.272-2.881c1.654-.699 3.414-1.056 5.229-1.056s3.574.355 5.229 1.056a13.377 13.377 0 014.272 2.881 13.41 13.41 0 012.881 4.272c.699 1.654 1.056 3.414 1.056 5.229s-.355 3.574-1.056 5.229a13.449 13.449 0 01-2.884 4.274z"/><path fill="#989898" d="M189.854 8.168c-1.431-2.513-3.372-4.502-5.823-5.969C181.579.733 178.902 0 175.999 0c-2.902 0-5.58.733-8.031 2.199-2.451 1.467-4.392 3.456-5.822 5.969C160.715 10.682 160 13.425 160 16.4c0 3.574 1.017 6.787 3.052 9.642 2.034 2.854 4.663 4.83 7.885 5.927.375.071.653.021.833-.149a.845.845 0 00.271-.641l-.011-1.153c-.007-.726-.011-1.359-.011-1.9l-.479.085a5.907 5.907 0 01-1.156.075c-.466-.007-.948-.057-1.448-.149s-.966-.306-1.396-.641a2.703 2.703 0 01-.917-1.313l-.208-.491c-.139-.327-.357-.69-.656-1.089s-.601-.669-.906-.812l-.146-.106a1.488 1.488 0 01-.459-.556c-.041-.1-.007-.182.104-.246s.312-.096.604-.096l.416.064c.278.057.622.227 1.031.512.41.285.747.655 1.011 1.11.319.584.704 1.029 1.156 1.335.451.307.906.459 1.364.459s.854-.036 1.188-.106c.333-.071.646-.179.938-.32.125-.954.465-1.688 1.021-2.2a14.054 14.054 0 01-2.136-.384 8.447 8.447 0 01-1.958-.834c-.674-.384-1.232-.861-1.677-1.431s-.81-1.317-1.094-2.242c-.284-.926-.427-1.993-.427-3.203 0-1.723.549-3.189 1.646-4.399-.514-1.296-.465-2.747.146-4.356.402-.128 1-.032 1.791.288.792.32 1.371.595 1.739.822.369.228.664.421.886.577 1.292-.37 2.625-.556 4-.556s2.709.186 4.001.556l.791-.513a11.072 11.072 0 011.916-.939c.736-.285 1.3-.363 1.688-.235.625 1.609.681 3.062.166 4.356 1.098 1.21 1.646 2.677 1.646 4.399 0 1.21-.143 2.281-.427 3.214-.285.933-.652 1.68-1.104 2.242a5.848 5.848 0 01-1.688 1.42 8.38 8.38 0 01-1.958.833c-.633.172-1.344.3-2.136.386.722.64 1.083 1.651 1.083 3.032v4.505c0 .256.087.47.261.641s.447.221.823.149c3.222-1.096 5.851-3.071 7.885-5.926C190.982 23.188 192 19.974 192 16.4c-.001-2.975-.717-5.718-2.146-8.232z"/><path fill="#676767" d="M189.854 40.168c-1.431-2.513-3.372-4.502-5.823-5.969C181.58 32.733 178.903 32 176 32c-2.902 0-5.58.733-8.031 2.199-2.451 1.467-4.392 3.456-5.822 5.969-1.431 2.514-2.146 5.257-2.146 8.232 0 3.574 1.017 6.787 3.052 9.642 2.034 2.854 4.663 4.83 7.885 5.926.375.072.653.021.833-.148a.847.847 0 00.271-.641l-.011-1.154c-.007-.726-.011-1.359-.011-1.9l-.479.086a5.916 5.916 0 01-1.156.074 8.719 8.719 0 01-1.448-.148 3.226 3.226 0 01-1.396-.641 2.706 2.706 0 01-.917-1.314l-.208-.49c-.139-.328-.357-.691-.656-1.09s-.601-.668-.906-.811l-.146-.107a1.448 1.448 0 01-.459-.555c-.041-.1-.007-.182.104-.246s.312-.096.604-.096l.416.064c.278.057.622.227 1.031.512.41.285.747.654 1.011 1.109.319.584.704 1.029 1.156 1.336.451.307.906.459 1.364.459s.854-.037 1.188-.107.646-.178.938-.32c.125-.953.465-1.688 1.021-2.199a14.173 14.173 0 01-2.136-.385 8.447 8.447 0 01-1.958-.834 5.633 5.633 0 01-1.677-1.43c-.444-.57-.81-1.318-1.094-2.242-.284-.926-.427-1.994-.427-3.204 0-1.723.549-3.189 1.646-4.399-.514-1.296-.465-2.747.146-4.356.402-.128 1-.032 1.791.288.792.32 1.371.595 1.739.822.369.228.664.421.886.577 1.292-.37 2.625-.556 4-.556s2.709.186 4.001.556l.791-.513a11.072 11.072 0 011.916-.939c.736-.285 1.3-.363 1.688-.235.625 1.609.681 3.062.166 4.356 1.098 1.21 1.646 2.677 1.646 4.399 0 1.209-.143 2.282-.427 3.213-.285.934-.652 1.68-1.104 2.242a5.832 5.832 0 01-1.688 1.42 8.429 8.429 0 01-1.958.834c-.633.172-1.344.299-2.136.385.722.641 1.083 1.652 1.083 3.033v4.504a.86.86 0 00.261.641c.174.172.447.221.823.15 3.222-1.096 5.851-3.072 7.885-5.926C190.982 55.188 192 51.975 192 48.4c-.001-2.975-.717-5.718-2.146-8.232z"/><path d="M189.854 72.168c-1.431-2.514-3.372-4.502-5.823-5.969S178.902 64 175.999 64c-2.902 0-5.58.732-8.031 2.199s-4.392 3.455-5.822 5.969S160 77.424 160 80.4c0 3.574 1.017 6.787 3.052 9.641 2.034 2.855 4.663 4.83 7.885 5.928.375.07.653.02.833-.15a.844.844 0 00.271-.641l-.011-1.152c-.007-.726-.011-1.359-.011-1.9l-.479.084c-.306.059-.691.082-1.156.076a8.727 8.727 0 01-1.448-.15 3.18 3.18 0 01-1.396-.641 2.7 2.7 0 01-.917-1.312l-.208-.492c-.139-.326-.357-.689-.656-1.088s-.601-.67-.906-.812l-.146-.105a1.53 1.53 0 01-.271-.258 1.202 1.202 0 01-.188-.299c-.041-.1-.007-.182.104-.246s.312-.096.604-.096l.416.064c.278.057.622.227 1.031.512.41.285.747.656 1.011 1.111.319.584.704 1.029 1.156 1.334.451.307.906.459 1.364.459s.854-.035 1.188-.105c.333-.072.646-.18.938-.32.125-.955.465-1.688 1.021-2.201a13.937 13.937 0 01-2.136-.383c-.631-.172-1.284-.449-1.958-.834s-1.232-.861-1.677-1.432c-.444-.568-.81-1.316-1.094-2.242s-.427-1.992-.427-3.203c0-1.723.549-3.189 1.646-4.398-.514-1.297-.465-2.748.146-4.357.402-.127 1-.031 1.791.289.792.32 1.371.594 1.739.822.369.227.664.42.886.576 1.292-.369 2.625-.555 4-.555s2.709.186 4.001.555l.791-.512a11 11 0 011.916-.939c.736-.285 1.3-.363 1.688-.236.625 1.609.681 3.062.166 4.357 1.098 1.209 1.646 2.676 1.646 4.398 0 1.211-.143 2.281-.427 3.215-.285.932-.652 1.68-1.104 2.242-.451.562-1.014 1.035-1.688 1.42s-1.326.662-1.958.832c-.633.172-1.344.301-2.136.387.722.639 1.083 1.65 1.083 3.031v4.506c0 .256.087.469.261.641.174.17.447.221.823.148 3.222-1.096 5.851-3.07 7.885-5.926 2.035-2.854 3.053-6.068 3.053-9.643.002-2.976-.714-5.718-2.143-8.232zM16 96c-8.84 0-16 7.16-16 16s7.16 16 16 16 16-7.16 16-16-7.16-16-16-16m-4 24.969H8v-12h4v12zm-2.14-13h-.03c-1.28 0-2.11-1.464-2.11-2.564 0-1.118.86-2.271 2.16-2.271 1.31 0 2.12 1.294 2.14 2.414 0 1.108-.83 2.421-2.16 2.421m16.14 13h-4v-7.238c0-1.551-.62-2.602-2-2.602-1.06 0-1.75.71-2.01 1.398-.11.242.01.582.01.933v7.509h-4.11s.05-11 0-12H18V110c0-.779 1.5-1.891 3.52-1.891 2.51 0 4.48 1.649 4.48 5.181v7.679zM48 96c-8.822 0-16 7.178-16 16s7.178 16 16 16 16-7.178 16-16-7.177-16-16-16m7.139 12.338c.006.159.01.318.01.479 0 4.867-3.703 10.477-10.479 10.477-2.079 0-4.016-.605-5.645-1.652a7.39 7.39 0 005.453-1.525 3.685 3.685 0 01-3.441-2.557 3.7 3.7 0 001.663-.063 3.684 3.684 0 01-2.954-3.612l.001-.046a3.698 3.698 0 001.667.46 3.676 3.676 0 01-1.637-3.063c0-.676.181-1.31.498-1.854a10.457 10.457 0 007.59 3.85 3.684 3.684 0 016.275-3.36 7.402 7.402 0 002.34-.895 3.7 3.7 0 01-1.623 2.037 7.358 7.358 0 002.117-.58 7.465 7.465 0 01-1.835 1.904"/><path d="M77.657 121.568c0 2.346-1.45 4.199-5.556 4.349a16.061 16.061 0 01-5.84-5.714c.739-1.828 3.053-3.221 5.696-3.191a7.023 7.023 0 012.086.334c1.747 1.215 3.156 1.973 3.511 3.358.066.28.103.569.103.864M80 96a15.953 15.953 0 00-11.708 5.098 8.186 8.186 0 013.966-1.021h8.014l-1.791 1.88h-2.104c1.484.85 2.273 2.602 2.273 4.531 0 1.771-.981 3.199-2.367 4.283-1.354 1.057-1.61 1.498-1.61 2.396 0 .768 1.617 1.91 2.36 2.467 2.588 1.941 3.111 3.162 3.111 5.592 0 2.459-2.154 4.907-5.809 5.74A15.95 15.95 0 0080 128c8.837 0 16-7.163 16-16 0-8.836-7.163-16-16-16m8 12v4h-2v-4h-4v-2h4v-4h2v4h4v2h-4zm-12.568-1.391c.371 2.836-.871 4.662-3.031 4.598-2.159-.064-4.211-2.047-4.584-4.883-.373-2.838 1.074-5.008 3.234-4.943 2.159.064 4.008 2.392 4.381 5.228m-4.53 9.455c-2.334 0-4.315.806-5.713 1.996A15.962 15.962 0 0164 112c0-1.773.29-3.48.823-5.075.229 3.108 2.417 5.507 6.03 5.507.266 0 .523-.014.776-.031-.248.477-.425 1.007-.425 1.562 0 .938.516 1.473 1.152 2.09-.481-.001-.945.011-1.454.011M112 96c-8.822 0-16 7.177-16 16 0 8.82 7.178 16 16 16s16-7.18 16-16c0-8.823-7.177-16-16-16m3.979 16.562h-2.603v9.277h-3.856v-9.277h-1.834v-3.278h1.834v-2.121c0-1.519.723-3.894 3.893-3.894l2.857.012v3.183h-2.074c-.338 0-.817.169-.817.894v1.928h2.938l-.338 3.276zM144 96c-8.837 0-16 7.164-16 16 0 8.837 7.163 16 16 16s16-7.163 16-16c0-8.836-7.163-16-16-16zm9.502 25.502a13.422 13.422 0 01-5.508 3.334v-2.398c0-1.261-.433-2.188-1.298-2.78a13.606 13.606 0 001.492-.22c.453-.094.934-.229 1.438-.405s.958-.39 1.358-.634a5.585 5.585 0 001.156-.953c.371-.391.68-.834.93-1.327.25-.494.449-1.089.595-1.781s.219-1.455.219-2.289c0-1.614-.526-2.989-1.577-4.125.479-1.25.426-2.608-.156-4.078l-.392-.047c-.271-.03-.758.084-1.461.345-.703.26-1.491.688-2.366 1.28a14.372 14.372 0 00-3.859-.516c-1.344 0-2.625.172-3.844.516a13.277 13.277 0 00-1.57-.93c-.495-.244-.891-.412-1.188-.5a3.996 3.996 0 00-.827-.164 3.443 3.443 0 00-.492-.017.993.993 0 00-.156.031c-.583 1.479-.637 2.838-.156 4.078-1.052 1.135-1.578 2.51-1.578 4.125 0 .834.072 1.596.219 2.289s.344 1.287.594 1.781.561.938.931 1.328c.37.39.755.709 1.156.953s.854.455 1.358.633c.506.178.984.312 1.438.406.454.094.95.166 1.491.219-.854.583-1.28 1.511-1.28 2.781v2.443a13.377 13.377 0 01-5.666-3.38 13.432 13.432 0 01-2.881-4.272c-.699-1.654-1.056-3.414-1.056-5.229s.355-3.574 1.056-5.229a13.377 13.377 0 012.881-4.272 13.443 13.443 0 014.272-2.881c1.654-.699 3.414-1.056 5.229-1.056s3.574.355 5.229 1.056a13.377 13.377 0 014.272 2.881 13.41 13.41 0 012.881 4.272c.699 1.654 1.056 3.414 1.056 5.229s-.355 3.574-1.056 5.229a13.449 13.449 0 01-2.884 4.274zm36.352-17.334c-1.431-2.514-3.372-4.502-5.823-5.969S178.902 96 175.999 96c-2.902 0-5.58.732-8.031 2.199s-4.392 3.455-5.822 5.969S160 109.424 160 112.4c0 3.574 1.017 6.787 3.052 9.641 2.034 2.855 4.663 4.83 7.885 5.928.375.07.653.02.833-.15a.844.844 0 00.271-.641l-.011-1.152c-.007-.726-.011-1.359-.011-1.9l-.479.084c-.306.059-.691.082-1.156.076a8.727 8.727 0 01-1.448-.15 3.18 3.18 0 01-1.396-.641 2.7 2.7 0 01-.917-1.312l-.208-.492c-.139-.326-.357-.689-.656-1.088s-.601-.67-.906-.812l-.146-.105a1.53 1.53 0 01-.271-.258 1.202 1.202 0 01-.188-.299c-.041-.1-.007-.182.104-.246s.312-.096.604-.096l.416.064c.278.057.622.227 1.031.512.41.285.747.656 1.011 1.111.319.584.704 1.029 1.156 1.334.451.307.906.459 1.364.459s.854-.035 1.188-.105c.333-.072.646-.18.938-.32.125-.955.465-1.688 1.021-2.201a13.937 13.937 0 01-2.136-.383c-.631-.172-1.284-.449-1.958-.834s-1.232-.861-1.677-1.432c-.444-.568-.81-1.316-1.094-2.242s-.427-1.992-.427-3.203c0-1.723.549-3.189 1.646-4.398-.514-1.297-.465-2.748.146-4.357.402-.127 1-.031 1.791.289.792.32 1.371.594 1.739.822.369.227.664.42.886.576 1.292-.369 2.625-.555 4-.555s2.709.186 4.001.555l.791-.512a11 11 0 011.916-.939c.736-.285 1.3-.363 1.688-.236.625 1.609.681 3.062.166 4.357 1.098 1.209 1.646 2.676 1.646 4.398 0 1.211-.143 2.281-.427 3.215-.285.932-.652 1.68-1.104 2.242-.451.562-1.014 1.035-1.688 1.42s-1.326.662-1.958.832c-.633.172-1.344.301-2.136.387.722.639 1.083 1.65 1.083 3.031v4.506c0 .256.087.469.261.641.174.17.447.221.823.148 3.222-1.096 5.851-3.07 7.885-5.926 2.035-2.854 3.053-6.068 3.053-9.643.002-2.976-.714-5.718-2.143-8.232z"/></svg>