<?xml version="1.0" encoding="utf-8"?>
<!-- Generator: Adobe Illustrator 16.0.4, SVG Export Plug-In . SVG Version: 6.00 Build 0)  -->
<!DOCTYPE svg PUBLIC "-//W3C//DTD SVG 1.1//EN" "http://www.w3.org/Graphics/SVG/1.1/DTD/svg11.dtd">
<svg version="1.1" id="Layer_1" xmlns="http://www.w3.org/2000/svg" xmlns:xlink="http://www.w3.org/1999/xlink" x="0px" y="0px"
	 width="256px" height="132.225px" viewBox="0 0 256 132.225" enable-background="new 0 0 256 132.225" xml:space="preserve">
<path fill="#989898" d="M16,0C7.16,0,0,7.16,0,16s7.16,16,16,16s16-7.16,16-16S24.84,0,16,0 M11.984,24.969h-4v-12h4V24.969z
	 M9.86,11.969H9.83c-1.28,0-2.11-1.464-2.11-2.562c0-1.12,0.86-2.273,2.16-2.273c1.31,0,2.12,1.294,2.14,2.414
	C12.02,10.656,11.19,11.969,9.86,11.969 M25.984,24.969h-4V17.73c0-1.551-0.612-2.601-1.992-2.601c-1.061,0-1.754,0.71-2.014,1.399
	c-0.111,0.24,0.006,0.58,0.006,0.931v7.509H13.89c0,0,0.05-11,0-12h4.095V14c0-0.78,1.5-1.891,3.52-1.891
	c2.51,0,4.48,1.65,4.48,5.181L25.984,24.969L25.984,24.969z"/>
<path fill="#989898" d="M48.09,0c-8.822,0-16,7.178-16,16s7.178,16,16,16c8.823,0,16-7.178,16-16C64.091,7.178,56.913,0,48.09,0
	 M55.229,12.338c0.007,0.159,0.011,0.318,0.011,0.478c0,4.867-3.703,10.477-10.479,10.477c-2.079,0-4.016-0.607-5.645-1.653
	c0.288,0.034,0.582,0.052,0.879,0.052c1.726,0,3.313-0.589,4.574-1.576c-1.612-0.029-2.972-1.095-3.441-2.559
	c0.225,0.043,0.456,0.067,0.692,0.067c0.336,0,0.662-0.044,0.971-0.128c-1.685-0.338-2.954-1.826-2.954-3.612
	c0-0.015,0-0.031,0.001-0.046c0.496,0.274,1.064,0.441,1.667,0.46c-0.987-0.659-1.637-1.787-1.637-3.064
	c0-0.676,0.181-1.309,0.498-1.853c1.815,2.229,4.53,3.695,7.59,3.849c-0.063-0.27-0.095-0.55-0.095-0.839
	c0-2.034,1.649-3.683,3.682-3.683c1.061,0,2.016,0.446,2.688,1.163c0.84-0.165,1.626-0.472,2.34-0.895
	c-0.276,0.86-0.858,1.581-1.622,2.038c0.746-0.089,1.457-0.287,2.115-0.58C56.573,11.171,55.948,11.82,55.229,12.338"/>
<path fill="#989898" d="M77.748,25.568c0,2.347-1.45,4.2-5.555,4.35c-2.406-1.368-4.422-3.342-5.841-5.714
	c0.74-1.828,3.053-3.222,5.697-3.191c0.751,0.007,1.451,0.128,2.086,0.334c1.747,1.214,3.156,1.973,3.51,3.358
	C77.71,24.984,77.748,25.273,77.748,25.568 M80.09,0c-4.623,0-8.787,1.962-11.708,5.097c1.154-0.639,2.517-1.02,3.966-1.02h8.013
	l-1.79,1.88h-2.104c1.484,0.85,2.274,2.601,2.274,4.53c0,1.772-0.982,3.2-2.368,4.283c-1.353,1.058-1.61,1.499-1.61,2.398
	c0,0.767,1.617,1.91,2.36,2.467c2.588,1.941,3.112,3.162,3.112,5.59c0,2.46-2.156,4.909-5.81,5.742
	C76.188,31.634,78.096,32,80.09,32c8.837,0,16-7.163,16-16C96.09,7.164,88.927,0,80.09,0 M88.09,12v4h-2v-4h-4v-2h4V6h2v4h4v2H88.09
	z M75.521,10.609c0.372,2.837-0.871,4.662-3.03,4.599c-2.16-0.065-4.212-2.047-4.585-4.883c-0.373-2.838,1.075-5.009,3.235-4.943
	C73.3,5.445,75.148,7.773,75.521,10.609 M70.993,20.065c-2.334,0-4.316,0.806-5.714,1.996c-0.765-1.87-1.189-3.916-1.189-6.061
	c0-1.774,0.29-3.48,0.823-5.075c0.23,3.108,2.417,5.507,6.03,5.507c0.266,0,0.524-0.014,0.777-0.032
	c-0.248,0.477-0.425,1.007-0.425,1.562c0,0.936,0.515,1.471,1.152,2.09C71.965,20.052,71.501,20.065,70.993,20.065"/>
<path fill="#989898" d="M112.09,0c-8.821,0-16,7.177-16,16c0,8.82,7.178,16,16,16c8.822,0,16-7.18,16-16
	C128.089,7.177,120.914,0,112.09,0 M116.069,16.563h-2.603v9.278h-3.857v-9.278h-1.834v-3.278h1.834v-2.121
	c0-1.52,0.722-3.894,3.893-3.894l2.858,0.012v3.183h-2.075c-0.338,0-0.817,0.169-0.817,0.893v1.928h2.938L116.069,16.563z"/>
<path fill="#676767" d="M16,32C7.16,32,0,39.16,0,48s7.16,16,16,16s16-7.16,16-16S24.84,32,16,32 M12,56.969H8v-12h4V56.969z
	 M9.86,43.969H9.83c-1.28,0-2.11-1.464-2.11-2.563c0-1.12,0.86-2.273,2.16-2.273c1.31,0,2.12,1.294,2.14,2.414
	C12.02,42.656,11.19,43.969,9.86,43.969 M26,56.969h-4V49.73c0-1.55-0.62-2.602-2-2.602c-1.06,0-1.75,0.71-2.01,1.397
	C17.88,48.77,18,49.109,18,49.46v7.509h-4.11c0,0,0.05-11,0-12H18V46c0-0.78,1.5-1.891,3.52-1.891c2.51,0,4.48,1.65,4.48,5.181
	V56.969z"/>
<path fill="#676767" d="M48,32c-8.822,0-16,7.178-16,16s7.178,16,16,16s16-7.178,16-16S56.823,32,48,32 M55.138,44.338
	c0.007,0.159,0.011,0.318,0.011,0.478c0,4.868-3.703,10.477-10.479,10.477c-2.079,0-4.016-0.606-5.645-1.653
	c0.288,0.034,0.582,0.053,0.879,0.053c1.726,0,3.313-0.59,4.574-1.575c-1.612-0.029-2.972-1.097-3.441-2.56
	c0.225,0.043,0.456,0.066,0.692,0.066c0.336,0,0.662-0.044,0.971-0.128c-1.685-0.338-2.954-1.826-2.954-3.612
	c0-0.015,0-0.031,0.001-0.046c0.496,0.274,1.064,0.441,1.667,0.46c-0.987-0.659-1.637-1.787-1.637-3.064
	c0-0.676,0.181-1.309,0.498-1.853c1.815,2.229,4.53,3.695,7.59,3.849c-0.063-0.27-0.095-0.55-0.095-0.839
	c0-2.034,1.649-3.683,3.682-3.683c1.06,0,2.015,0.446,2.688,1.163c0.84-0.165,1.626-0.472,2.34-0.895
	c-0.277,0.86-0.859,1.581-1.622,2.038c0.746-0.089,1.457-0.287,2.116-0.58C56.482,43.171,55.858,43.82,55.138,44.338"/>
<path fill="#676767" d="M77.657,57.568c0,2.347-1.45,4.199-5.555,4.35c-2.406-1.368-4.422-3.342-5.841-5.714
	c0.74-1.828,3.053-3.222,5.697-3.191c0.751,0.008,1.451,0.129,2.086,0.334c1.747,1.215,3.156,1.973,3.51,3.358
	C77.62,56.984,77.657,57.273,77.657,57.568 M80,32c-4.623,0-8.787,1.962-11.708,5.097c1.154-0.639,2.517-1.02,3.966-1.02h8.013
	l-1.79,1.88h-2.104c1.484,0.85,2.274,2.601,2.274,4.53c0,1.772-0.982,3.2-2.368,4.283c-1.353,1.058-1.61,1.499-1.61,2.398
	c0,0.767,1.617,1.91,2.36,2.467c2.588,1.941,3.112,3.162,3.112,5.591c0,2.459-2.155,4.908-5.809,5.741
	C76.097,63.634,78.006,64,80,64c8.837,0,16-7.163,16-16C96,39.164,88.837,32,80,32 M88,44v4h-2v-4h-4v-2h4v-4h2v4h4v2H88z
	 M75.431,42.609c0.372,2.837-0.871,4.662-3.03,4.599c-2.16-0.065-4.212-2.047-4.585-4.883c-0.373-2.838,1.075-5.009,3.235-4.943
	C73.21,37.445,75.058,39.773,75.431,42.609 M70.903,52.064c-2.334,0-4.316,0.807-5.714,1.996C64.424,52.191,64,50.145,64,48
	c0-1.774,0.29-3.48,0.823-5.075c0.23,3.108,2.417,5.507,6.03,5.507c0.266,0,0.524-0.014,0.777-0.032
	c-0.248,0.477-0.425,1.007-0.425,1.562c0,0.937,0.515,1.472,1.152,2.09C71.875,52.052,71.411,52.064,70.903,52.064"/>
<path fill="#676767" d="M112,32c-8.822,0-16,7.177-16,16c0,8.819,7.178,16,16,16s16-7.181,16-16C128,39.177,120.823,32,112,32
	 M115.979,48.562h-2.603v9.277h-3.857v-9.277h-1.834v-3.277h1.834v-2.121c0-1.52,0.722-3.894,3.892-3.894l2.859,0.012v3.183h-2.075
	c-0.338,0-0.818,0.169-0.818,0.893v1.928h2.939L115.979,48.562z"/>
<path fill="#0384B1" d="M16,64C7.16,64,0,71.16,0,80s7.16,16,16,16s16-7.16,16-16S24.84,64,16,64 M12,88.969H8v-12h4V88.969z
	 M9.86,75.969H9.83c-1.28,0-2.11-1.464-2.11-2.563c0-1.118,0.86-2.271,2.16-2.271c1.31,0,2.12,1.294,2.14,2.414
	C12.02,74.656,11.19,75.969,9.86,75.969 M26,88.969h-4V81.73c0-1.551-0.62-2.602-2-2.602c-1.06,0-1.75,0.71-2.01,1.397
	C17.88,80.77,18,81.109,18,81.46v7.509h-4.11c0,0,0.05-11,0-12H18V78c0-0.779,1.5-1.892,3.52-1.892c2.51,0,4.48,1.649,4.48,5.182
	V88.969z"/>
<path fill="#2AAAE1" d="M48,64c-8.822,0-16,7.178-16,16s7.178,16,16,16s16-7.178,16-16S56.823,64,48,64 M55.138,76.338
	c0.007,0.159,0.011,0.318,0.011,0.479c0,4.867-3.703,10.478-10.479,10.478c-2.079,0-4.016-0.605-5.645-1.652
	c0.288,0.033,0.582,0.053,0.879,0.053c1.726,0,3.313-0.59,4.574-1.577c-1.612-0.028-2.972-1.095-3.441-2.558
	c0.225,0.043,0.456,0.065,0.692,0.065c0.336,0,0.662-0.044,0.971-0.128c-1.685-0.338-2.954-1.826-2.954-3.612
	c0-0.015,0-0.03,0.001-0.046c0.496,0.272,1.064,0.441,1.667,0.46c-0.987-0.657-1.637-1.787-1.637-3.063
	c0-0.676,0.181-1.31,0.498-1.854c1.815,2.229,4.53,3.695,7.59,3.85c-0.063-0.271-0.095-0.549-0.095-0.838
	c0-2.035,1.649-3.685,3.682-3.685c1.06,0,2.015,0.446,2.688,1.163c0.84-0.165,1.626-0.474,2.34-0.896
	c-0.277,0.859-0.859,1.58-1.622,2.037c0.746-0.089,1.457-0.287,2.116-0.58C56.482,75.171,55.858,75.82,55.138,76.338"/>
<path fill="#DD4B38" d="M77.657,89.568c0,2.347-1.45,4.199-5.555,4.35c-2.406-1.368-4.422-3.342-5.841-5.714
	c0.74-1.828,3.053-3.222,5.697-3.191c0.751,0.008,1.451,0.129,2.086,0.334c1.747,1.215,3.156,1.973,3.51,3.358
	C77.62,88.984,77.657,89.273,77.657,89.568 M80,64c-4.623,0-8.787,1.962-11.708,5.098c1.154-0.64,2.517-1.021,3.966-1.021h8.013
	l-1.79,1.88h-2.104c1.484,0.85,2.274,2.602,2.274,4.53c0,1.771-0.982,3.199-2.368,4.283c-1.353,1.058-1.61,1.498-1.61,2.396
	c0,0.768,1.617,1.91,2.36,2.467c2.588,1.941,3.112,3.162,3.112,5.592c0,2.459-2.155,4.907-5.809,5.74C76.097,95.634,78.006,96,80,96
	c8.837,0,16-7.163,16-16C96,71.164,88.837,64,80,64 M88,76v4h-2v-4h-4v-2h4v-4h2v4h4v2H88z M75.431,74.609
	c0.372,2.836-0.871,4.662-3.03,4.599c-2.16-0.064-4.212-2.047-4.585-4.883c-0.373-2.839,1.075-5.009,3.235-4.943
	C73.21,69.445,75.058,71.773,75.431,74.609 M70.903,84.064c-2.334,0-4.316,0.807-5.714,1.996C64.424,84.191,64,82.145,64,80
	c0-1.773,0.29-3.48,0.823-5.075c0.23,3.108,2.417,5.507,6.03,5.507c0.266,0,0.524-0.014,0.777-0.031
	c-0.248,0.478-0.425,1.008-0.425,1.562c0,0.938,0.515,1.473,1.152,2.09C71.875,84.052,71.411,84.064,70.903,84.064"/>
<path fill="#3B5999" d="M112,64c-8.822,0-16,7.177-16,16c0,8.819,7.178,16,16,16s16-7.181,16-16C128,71.177,120.823,64,112,64
	 M115.979,80.562h-2.603v9.277h-3.856v-9.277h-1.834v-3.277h1.834v-2.121c0-1.52,0.722-3.895,3.892-3.895l2.858,0.013v3.183h-2.074
	c-0.338,0-0.818,0.169-0.818,0.894v1.929h2.939L115.979,80.562z"/>
<g>
	<path fill="#989898" d="M144,0c-8.837,0-16,7.164-16,16c0,8.837,7.163,16,16,16s16-7.163,16-16C160,7.164,152.837,0,144,0z
		 M153.502,25.502c-1.234,1.233-2.673,2.204-4.271,2.881c-0.405,0.172-0.818,0.322-1.236,0.453v-2.398
		c0-1.261-0.434-2.188-1.299-2.78c0.543-0.053,1.039-0.125,1.492-0.22c0.453-0.094,0.935-0.229,1.438-0.405
		c0.505-0.178,0.958-0.39,1.358-0.634c0.402-0.245,0.787-0.562,1.156-0.953c0.371-0.391,0.68-0.833,0.93-1.327
		c0.25-0.495,0.449-1.088,0.595-1.781s0.219-1.456,0.219-2.289c0-1.615-0.526-2.99-1.577-4.125c0.479-1.25,0.426-2.609-0.156-4.078
		l-0.392-0.047c-0.271-0.031-0.758,0.083-1.461,0.344c-0.702,0.261-1.491,0.688-2.366,1.281c-1.24-0.344-2.527-0.516-3.858-0.516
		c-1.345,0-2.625,0.172-3.845,0.516c-0.553-0.375-1.076-0.686-1.569-0.93c-0.495-0.245-0.892-0.412-1.188-0.5
		s-0.572-0.144-0.826-0.164c-0.256-0.021-0.42-0.026-0.492-0.017c-0.073,0.011-0.125,0.021-0.156,0.031
		c-0.583,1.479-0.637,2.838-0.156,4.078c-1.052,1.135-1.578,2.51-1.578,4.125c0,0.833,0.072,1.596,0.219,2.289
		c0.147,0.692,0.345,1.287,0.595,1.781c0.25,0.493,0.561,0.938,0.931,1.327c0.37,0.391,0.755,0.708,1.156,0.953
		c0.4,0.244,0.854,0.455,1.357,0.634c0.506,0.178,0.984,0.312,1.438,0.405c0.454,0.095,0.95,0.167,1.491,0.22
		c-0.854,0.583-1.28,1.511-1.28,2.78v2.444c-0.472-0.14-0.938-0.306-1.394-0.499c-1.603-0.677-3.037-1.646-4.272-2.881
		c-1.233-1.235-2.204-2.672-2.881-4.272c-0.699-1.654-1.056-3.414-1.056-5.229c0-1.815,0.354-3.575,1.056-5.229
		c0.677-1.6,1.646-3.037,2.881-4.271c1.235-1.235,2.673-2.204,4.272-2.881c1.654-0.7,3.414-1.056,5.229-1.056
		s3.574,0.355,5.229,1.056c1.603,0.677,3.037,1.646,4.272,2.881c1.233,1.234,2.204,2.672,2.882,4.271
		c0.698,1.655,1.055,3.414,1.055,5.229c0,1.814-0.354,3.575-1.055,5.229C155.706,22.83,154.736,24.267,153.502,25.502z"/>
</g>
<g>
	<path fill="#676767" d="M144,32c-8.837,0-16,7.164-16,16c0,8.837,7.163,16,16,16s16-7.163,16-16C160,39.164,152.837,32,144,32z
		 M153.502,57.502c-1.234,1.233-2.673,2.204-4.271,2.881c-0.405,0.172-0.818,0.322-1.236,0.453v-2.398
		c0-1.261-0.434-2.188-1.299-2.779c0.543-0.053,1.039-0.125,1.492-0.221c0.453-0.094,0.935-0.229,1.438-0.404
		c0.504-0.177,0.958-0.391,1.358-0.635c0.402-0.243,0.787-0.562,1.156-0.953c0.371-0.391,0.68-0.834,0.93-1.326
		c0.25-0.494,0.449-1.089,0.595-1.781s0.219-1.455,0.219-2.289c0-1.615-0.526-2.99-1.577-4.125c0.479-1.25,0.426-2.609-0.156-4.078
		l-0.392-0.047c-0.271-0.031-0.758,0.083-1.461,0.344c-0.702,0.261-1.491,0.688-2.366,1.281c-1.24-0.344-2.527-0.516-3.858-0.516
		c-1.345,0-2.625,0.172-3.845,0.516c-0.553-0.375-1.076-0.685-1.569-0.93c-0.495-0.245-0.892-0.412-1.188-0.5
		s-0.572-0.144-0.826-0.164c-0.256-0.021-0.42-0.026-0.492-0.017c-0.073,0.011-0.125,0.021-0.156,0.031
		c-0.583,1.479-0.637,2.838-0.156,4.078c-1.052,1.135-1.578,2.51-1.578,4.125c0,0.834,0.072,1.596,0.219,2.289
		c0.147,0.693,0.345,1.287,0.595,1.781c0.25,0.493,0.561,0.938,0.931,1.327c0.37,0.391,0.755,0.71,1.156,0.953
		c0.4,0.244,0.854,0.455,1.357,0.634c0.506,0.178,0.984,0.312,1.438,0.405c0.454,0.095,0.95,0.166,1.491,0.22
		c-0.854,0.583-1.28,1.511-1.28,2.78v2.443c-0.472-0.14-0.938-0.306-1.394-0.499c-1.603-0.677-3.037-1.646-4.272-2.881
		c-1.233-1.235-2.204-2.672-2.881-4.272c-0.699-1.653-1.056-3.414-1.056-5.229c0-1.815,0.354-3.575,1.056-5.229
		c0.677-1.6,1.646-3.037,2.881-4.271c1.235-1.235,2.673-2.204,4.272-2.881c1.654-0.7,3.414-1.056,5.229-1.056
		s3.574,0.355,5.229,1.056c1.603,0.677,3.037,1.646,4.272,2.881c1.233,1.234,2.204,2.672,2.882,4.271
		c0.698,1.655,1.055,3.414,1.055,5.229c0,1.813-0.354,3.574-1.055,5.229C155.706,54.83,154.736,56.268,153.502,57.502z"/>
</g>
<g>
	<path d="M144,64c-8.837,0-16,7.164-16,16c0,8.837,7.163,16,16,16s16-7.163,16-16C160,71.164,152.837,64,144,64z M153.502,89.502
		c-1.234,1.233-2.673,2.204-4.271,2.881c-0.405,0.172-0.818,0.322-1.236,0.453v-2.398c0-1.261-0.434-2.188-1.299-2.779
		c0.543-0.053,1.039-0.125,1.492-0.221c0.453-0.094,0.935-0.229,1.438-0.404c0.504-0.177,0.958-0.391,1.358-0.635
		c0.402-0.244,0.787-0.562,1.156-0.953c0.371-0.391,0.68-0.834,0.93-1.326c0.25-0.494,0.449-1.09,0.595-1.781
		c0.146-0.692,0.219-1.455,0.219-2.289c0-1.614-0.526-2.989-1.577-4.125c0.479-1.25,0.426-2.608-0.156-4.078l-0.392-0.047
		c-0.271-0.03-0.758,0.084-1.461,0.345c-0.702,0.26-1.491,0.688-2.366,1.28c-1.24-0.344-2.527-0.516-3.858-0.516
		c-1.345,0-2.625,0.172-3.845,0.516c-0.553-0.375-1.076-0.688-1.569-0.93c-0.495-0.244-0.892-0.412-1.188-0.5
		c-0.297-0.09-0.572-0.145-0.826-0.164c-0.256-0.021-0.42-0.024-0.492-0.018c-0.073,0.011-0.125,0.021-0.156,0.031
		c-0.583,1.479-0.637,2.838-0.156,4.078c-1.052,1.135-1.578,2.51-1.578,4.125c0,0.834,0.072,1.596,0.219,2.289
		c0.147,0.692,0.345,1.287,0.595,1.781c0.25,0.493,0.561,0.938,0.931,1.327c0.37,0.391,0.755,0.709,1.156,0.953
		c0.4,0.244,0.854,0.455,1.357,0.634c0.506,0.178,0.984,0.312,1.438,0.405c0.454,0.095,0.95,0.166,1.491,0.22
		c-0.854,0.583-1.28,1.511-1.28,2.78v2.443c-0.472-0.14-0.938-0.306-1.394-0.499c-1.603-0.677-3.037-1.646-4.272-2.881
		c-1.233-1.235-2.204-2.672-2.881-4.272c-0.699-1.653-1.056-3.414-1.056-5.229c0-1.815,0.354-3.574,1.056-5.229
		c0.677-1.602,1.646-3.037,2.881-4.271c1.235-1.233,2.673-2.204,4.272-2.881c1.654-0.699,3.414-1.057,5.229-1.057
		s3.574,0.355,5.229,1.057c1.603,0.677,3.037,1.646,4.272,2.881c1.233,1.232,2.204,2.672,2.882,4.271
		c0.698,1.654,1.055,3.414,1.055,5.229c0,1.814-0.354,3.574-1.055,5.229C155.706,86.83,154.736,88.268,153.502,89.502z"/>
</g>
<g>
	<path fill="#989898" d="M189.854,8.168c-1.431-2.513-3.371-4.502-5.822-5.969C181.579,0.733,178.902,0,175.999,0
		c-2.901,0-5.58,0.732-8.031,2.199c-2.45,1.467-4.392,3.456-5.821,5.969C160.715,10.682,160,13.425,160,16.4
		c0,3.574,1.018,6.787,3.052,9.643c2.034,2.854,4.663,4.83,7.886,5.927c0.375,0.071,0.652,0.021,0.832-0.149
		c0.182-0.171,0.271-0.385,0.271-0.641c0-0.043-0.004-0.427-0.012-1.153c-0.006-0.726-0.01-1.358-0.01-1.899l-0.479,0.085
		c-0.306,0.058-0.69,0.082-1.156,0.075c-0.466-0.008-0.948-0.058-1.448-0.149s-0.966-0.306-1.396-0.641
		c-0.431-0.334-0.735-0.772-0.917-1.313l-0.208-0.491c-0.14-0.326-0.356-0.689-0.656-1.089c-0.299-0.398-0.601-0.669-0.905-0.812
		l-0.146-0.106c-0.098-0.07-0.188-0.157-0.271-0.257c-0.082-0.1-0.146-0.199-0.188-0.299c-0.041-0.101-0.008-0.182,0.104-0.246
		s0.312-0.096,0.604-0.096l0.416,0.063c0.278,0.058,0.622,0.228,1.03,0.512c0.41,0.285,0.748,0.655,1.012,1.11
		c0.318,0.584,0.704,1.029,1.156,1.335c0.451,0.308,0.906,0.459,1.363,0.459c0.459,0,0.854-0.036,1.188-0.105
		c0.333-0.071,0.646-0.18,0.938-0.32c0.125-0.954,0.465-1.688,1.021-2.2c-0.791-0.085-1.503-0.214-2.136-0.384
		c-0.631-0.172-1.284-0.449-1.959-0.834c-0.674-0.384-1.231-0.861-1.676-1.431c-0.445-0.57-0.811-1.317-1.095-2.242
		c-0.284-0.926-0.427-1.993-0.427-3.203c0-1.723,0.549-3.189,1.646-4.399c-0.515-1.296-0.465-2.747,0.146-4.355
		c0.401-0.128,1-0.032,1.791,0.288c0.792,0.319,1.371,0.595,1.739,0.821c0.369,0.229,0.664,0.422,0.886,0.577
		c1.292-0.37,2.625-0.556,4-0.556s2.709,0.186,4.001,0.556l0.791-0.513c0.542-0.342,1.182-0.655,1.916-0.939
		c0.736-0.284,1.3-0.362,1.688-0.234c0.625,1.608,0.682,3.062,0.166,4.355c1.099,1.21,1.646,2.678,1.646,4.399
		c0,1.21-0.143,2.281-0.428,3.214c-0.284,0.933-0.651,1.68-1.104,2.242c-0.451,0.562-1.014,1.036-1.688,1.42
		c-0.674,0.385-1.326,0.662-1.959,0.833c-0.633,0.172-1.344,0.3-2.135,0.386c0.721,0.641,1.082,1.651,1.082,3.032v4.505
		c0,0.256,0.088,0.47,0.262,0.641c0.174,0.172,0.447,0.222,0.822,0.149c3.223-1.096,5.852-3.071,7.885-5.926
		C190.982,23.188,192,19.974,192,16.4C191.999,13.425,191.283,10.682,189.854,8.168z"/>
</g>
<g>
	<path fill="#676767" d="M189.854,40.168c-1.431-2.513-3.371-4.502-5.822-5.969S178.902,32,176,32s-5.58,0.732-8.031,2.199
		s-4.392,3.456-5.822,5.969c-1.431,2.514-2.146,5.257-2.146,8.231c0,3.574,1.017,6.787,3.052,9.643
		c2.034,2.854,4.663,4.83,7.885,5.926c0.375,0.072,0.653,0.021,0.834-0.148c0.181-0.172,0.271-0.385,0.271-0.641
		c0-0.043-0.004-0.428-0.011-1.154c-0.008-0.726-0.012-1.358-0.012-1.899l-0.479,0.086c-0.307,0.057-0.691,0.082-1.156,0.074
		c-0.466-0.007-0.947-0.058-1.447-0.148c-0.5-0.094-0.967-0.307-1.396-0.641c-0.432-0.334-0.736-0.773-0.917-1.314l-0.208-0.49
		c-0.139-0.327-0.357-0.69-0.656-1.09c-0.299-0.398-0.601-0.668-0.906-0.811l-0.146-0.107c-0.099-0.069-0.188-0.156-0.271-0.256
		c-0.084-0.1-0.146-0.199-0.188-0.299c-0.041-0.101-0.007-0.182,0.104-0.246c0.11-0.064,0.312-0.096,0.604-0.096l0.416,0.063
		c0.277,0.058,0.622,0.228,1.031,0.512c0.41,0.285,0.746,0.654,1.011,1.109c0.319,0.584,0.704,1.029,1.155,1.336
		c0.451,0.308,0.906,0.459,1.365,0.459c0.457,0,0.854-0.037,1.188-0.106c0.334-0.07,0.646-0.179,0.938-0.32
		c0.125-0.953,0.465-1.688,1.021-2.199c-0.791-0.086-1.503-0.215-2.137-0.385c-0.631-0.172-1.283-0.449-1.957-0.834
		c-0.674-0.383-1.232-0.861-1.678-1.43c-0.443-0.57-0.81-1.318-1.094-2.242c-0.283-0.926-0.427-1.994-0.427-3.204
		c0-1.723,0.549-3.189,1.646-4.399c-0.514-1.296-0.465-2.747,0.146-4.355c0.402-0.128,1-0.032,1.791,0.288
		c0.792,0.319,1.371,0.595,1.738,0.821c0.369,0.229,0.664,0.422,0.887,0.577c1.292-0.37,2.625-0.556,4-0.556
		s2.709,0.186,4.001,0.556l0.791-0.513c0.542-0.342,1.181-0.655,1.916-0.939s1.3-0.362,1.688-0.234
		c0.625,1.608,0.681,3.062,0.166,4.355c1.098,1.21,1.646,2.678,1.646,4.399c0,1.209-0.144,2.282-0.427,3.213
		c-0.285,0.934-0.652,1.68-1.104,2.242c-0.45,0.562-1.014,1.037-1.688,1.42c-0.674,0.385-1.325,0.662-1.957,0.834
		c-0.633,0.172-1.344,0.299-2.137,0.385c0.723,0.642,1.084,1.652,1.084,3.033v4.504c0,0.256,0.086,0.471,0.26,0.641
		c0.175,0.173,0.447,0.222,0.824,0.15c3.222-1.096,5.851-3.072,7.885-5.926C190.982,55.188,192,51.975,192,48.4
		C191.999,45.425,191.283,42.682,189.854,40.168z"/>
</g>
<g>
	<path d="M189.854,72.168c-1.431-2.515-3.371-4.502-5.822-5.969C181.58,64.732,178.902,64,175.999,64
		c-2.901,0-5.58,0.731-8.031,2.199c-2.45,1.467-4.392,3.454-5.821,5.969C160.716,74.682,160,77.424,160,80.4
		c0,3.574,1.018,6.787,3.052,9.642s4.663,4.83,7.886,5.928c0.375,0.07,0.652,0.021,0.832-0.15c0.182-0.17,0.271-0.385,0.271-0.641
		c0-0.043-0.004-0.426-0.012-1.152c-0.006-0.726-0.01-1.358-0.01-1.899l-0.479,0.084c-0.306,0.059-0.69,0.082-1.156,0.076
		c-0.466-0.009-0.948-0.058-1.448-0.15c-0.5-0.092-0.966-0.305-1.396-0.641c-0.431-0.334-0.735-0.771-0.917-1.312l-0.208-0.492
		c-0.14-0.325-0.356-0.688-0.656-1.088c-0.299-0.398-0.601-0.67-0.905-0.812l-0.146-0.105c-0.098-0.071-0.188-0.158-0.271-0.258
		c-0.082-0.1-0.146-0.199-0.188-0.299c-0.041-0.101-0.007-0.182,0.104-0.246c0.111-0.064,0.312-0.096,0.604-0.096l0.416,0.063
		c0.278,0.058,0.622,0.228,1.03,0.512c0.41,0.285,0.748,0.656,1.012,1.111c0.318,0.584,0.704,1.029,1.156,1.334
		c0.451,0.308,0.906,0.459,1.363,0.459c0.459,0,0.854-0.035,1.188-0.104c0.333-0.072,0.646-0.181,0.938-0.32
		c0.125-0.955,0.465-1.688,1.021-2.201c-0.791-0.084-1.503-0.213-2.136-0.383c-0.631-0.172-1.284-0.449-1.959-0.834
		c-0.674-0.385-1.231-0.861-1.676-1.432c-0.444-0.568-0.811-1.316-1.095-2.242s-0.427-1.992-0.427-3.203
		c0-1.723,0.549-3.189,1.646-4.398c-0.515-1.297-0.465-2.748,0.146-4.356c0.401-0.127,1-0.031,1.791,0.289
		c0.792,0.319,1.371,0.594,1.739,0.821c0.369,0.228,0.664,0.421,0.886,0.576c1.292-0.369,2.625-0.555,4-0.555
		s2.709,0.186,4.001,0.555l0.791-0.512c0.542-0.342,1.182-0.656,1.916-0.939c0.736-0.284,1.3-0.362,1.688-0.235
		c0.625,1.608,0.682,3.062,0.166,4.356c1.099,1.209,1.646,2.677,1.646,4.398c0,1.211-0.143,2.281-0.428,3.215
		c-0.284,0.932-0.651,1.68-1.104,2.242c-0.451,0.562-1.014,1.035-1.688,1.42s-1.326,0.662-1.959,0.832
		c-0.633,0.172-1.344,0.301-2.135,0.387c0.721,0.64,1.082,1.65,1.082,3.031v4.506c0,0.256,0.088,0.469,0.262,0.641
		c0.174,0.171,0.447,0.222,0.822,0.148c3.223-1.096,5.852-3.07,7.885-5.926c2.035-2.854,3.054-6.068,3.054-9.644
		C191.999,77.424,191.283,74.682,189.854,72.168z"/>
</g>
<path d="M16,96c-8.84,0-16,7.16-16,16s7.16,16,16,16s16-7.16,16-16S24.84,96,16,96 M12,120.969H8v-12h4V120.969z M9.86,107.969H9.83
	c-1.28,0-2.11-1.464-2.11-2.563c0-1.118,0.86-2.271,2.16-2.271c1.31,0,2.12,1.294,2.14,2.414
	C12.02,106.656,11.19,107.969,9.86,107.969 M26,120.969h-4v-7.238c0-1.551-0.62-2.602-2-2.602c-1.06,0-1.75,0.71-2.01,1.397
	c-0.11,0.242,0.01,0.582,0.01,0.934v7.509h-4.11c0,0,0.05-11,0-12H18V110c0-0.779,1.5-1.892,3.52-1.892
	c2.51,0,4.48,1.649,4.48,5.182V120.969z"/>
<path d="M48,96c-8.822,0-16,7.178-16,16s7.178,16,16,16s16-7.178,16-16S56.823,96,48,96 M55.139,108.338
	c0.006,0.159,0.01,0.318,0.01,0.479c0,4.867-3.703,10.478-10.479,10.478c-2.079,0-4.016-0.605-5.645-1.652
	c0.288,0.033,0.582,0.053,0.879,0.053c1.726,0,3.313-0.59,4.574-1.577c-1.612-0.028-2.972-1.095-3.441-2.558
	c0.225,0.043,0.456,0.065,0.692,0.065c0.336,0,0.662-0.044,0.971-0.128c-1.685-0.338-2.954-1.826-2.954-3.612
	c0-0.015,0-0.03,0.001-0.046c0.496,0.272,1.064,0.441,1.667,0.46c-0.987-0.657-1.637-1.787-1.637-3.063
	c0-0.676,0.181-1.31,0.498-1.854c1.815,2.229,4.53,3.695,7.59,3.85c-0.063-0.271-0.095-0.549-0.095-0.838
	c0-2.035,1.649-3.685,3.682-3.685c1.06,0,2.015,0.446,2.688,1.163c0.84-0.165,1.625-0.474,2.34-0.896
	c-0.277,0.859-0.859,1.58-1.623,2.037c0.746-0.089,1.457-0.287,2.117-0.58C56.482,107.171,55.857,107.82,55.139,108.338"/>
<path d="M77.657,121.568c0,2.347-1.45,4.199-5.556,4.35c-2.406-1.368-4.422-3.342-5.84-5.714c0.739-1.828,3.053-3.222,5.696-3.191
	c0.751,0.008,1.451,0.129,2.086,0.334c1.747,1.215,3.156,1.973,3.511,3.358C77.62,120.984,77.657,121.273,77.657,121.568 M80,96
	c-4.623,0-8.787,1.962-11.708,5.098c1.153-0.64,2.517-1.021,3.966-1.021h8.014l-1.791,1.88h-2.104
	c1.484,0.85,2.273,2.602,2.273,4.53c0,1.771-0.981,3.199-2.367,4.283c-1.354,1.058-1.61,1.498-1.61,2.396
	c0,0.768,1.617,1.91,2.36,2.467c2.588,1.941,3.111,3.162,3.111,5.592c0,2.459-2.154,4.907-5.809,5.74
	C76.098,127.634,78.006,128,80,128c8.837,0,16-7.163,16-16C96,103.164,88.837,96,80,96 M88,108v4h-2v-4h-4v-2h4v-4h2v4h4v2H88z
	 M75.432,106.609c0.371,2.836-0.871,4.662-3.031,4.599c-2.159-0.064-4.211-2.047-4.584-4.883c-0.373-2.839,1.074-5.009,3.234-4.943
	C73.21,101.445,75.059,103.773,75.432,106.609 M70.902,116.064c-2.334,0-4.315,0.807-5.713,1.996C64.424,116.191,64,114.145,64,112
	c0-1.773,0.29-3.48,0.823-5.075c0.229,3.108,2.417,5.507,6.03,5.507c0.266,0,0.523-0.014,0.776-0.031
	c-0.248,0.478-0.425,1.008-0.425,1.562c0,0.938,0.516,1.473,1.152,2.09C71.875,116.052,71.411,116.064,70.902,116.064"/>
<path d="M112,96c-8.822,0-16,7.177-16,16c0,8.819,7.178,16,16,16s16-7.181,16-16C128,103.177,120.823,96,112,96 M115.979,112.562
	h-2.603v9.277h-3.856v-9.277h-1.834v-3.277h1.834v-2.121c0-1.52,0.723-3.895,3.893-3.895l2.857,0.013v3.183h-2.074
	c-0.338,0-0.817,0.169-0.817,0.894v1.929h2.938L115.979,112.562z"/>
<g>
	<path d="M144,96c-8.837,0-16,7.164-16,16c0,8.837,7.163,16,16,16s16-7.163,16-16C160,103.164,152.837,96,144,96z M153.502,121.502
		c-1.234,1.233-2.673,2.204-4.271,2.881c-0.405,0.172-0.818,0.322-1.236,0.453v-2.398c0-1.261-0.434-2.188-1.299-2.779
		c0.543-0.053,1.039-0.125,1.492-0.221c0.453-0.094,0.935-0.229,1.438-0.404c0.504-0.177,0.958-0.391,1.358-0.635
		c0.402-0.244,0.787-0.562,1.156-0.953c0.371-0.391,0.68-0.834,0.93-1.326c0.25-0.494,0.449-1.09,0.595-1.781
		c0.146-0.692,0.219-1.455,0.219-2.289c0-1.614-0.526-2.989-1.577-4.125c0.479-1.25,0.426-2.608-0.156-4.078l-0.392-0.047
		c-0.271-0.03-0.758,0.084-1.461,0.345c-0.702,0.26-1.491,0.688-2.366,1.28c-1.24-0.344-2.527-0.516-3.858-0.516
		c-1.345,0-2.625,0.172-3.845,0.516c-0.553-0.375-1.076-0.688-1.569-0.93c-0.495-0.244-0.892-0.412-1.188-0.5
		c-0.297-0.09-0.572-0.145-0.826-0.164c-0.256-0.021-0.42-0.024-0.492-0.018c-0.073,0.011-0.125,0.021-0.156,0.031
		c-0.583,1.479-0.637,2.838-0.156,4.078c-1.052,1.135-1.578,2.51-1.578,4.125c0,0.834,0.072,1.596,0.219,2.289
		c0.147,0.692,0.345,1.287,0.595,1.781c0.25,0.493,0.561,0.938,0.931,1.327c0.37,0.391,0.755,0.709,1.156,0.953
		c0.4,0.244,0.854,0.455,1.357,0.634c0.506,0.178,0.984,0.312,1.438,0.405c0.454,0.095,0.95,0.166,1.491,0.22
		c-0.854,0.583-1.28,1.511-1.28,2.78v2.443c-0.472-0.14-0.938-0.306-1.394-0.499c-1.603-0.677-3.037-1.646-4.272-2.881
		c-1.233-1.235-2.204-2.672-2.881-4.272c-0.699-1.653-1.056-3.414-1.056-5.229c0-1.815,0.354-3.574,1.056-5.229
		c0.677-1.602,1.646-3.037,2.881-4.271c1.235-1.233,2.673-2.204,4.272-2.881c1.654-0.699,3.414-1.057,5.229-1.057
		s3.574,0.355,5.229,1.057c1.603,0.677,3.037,1.646,4.272,2.881c1.233,1.232,2.204,2.672,2.882,4.271
		c0.698,1.654,1.055,3.414,1.055,5.229c0,1.814-0.354,3.574-1.055,5.229C155.706,118.83,154.736,120.268,153.502,121.502z"/>
</g>
<g>
	<path d="M189.854,104.168c-1.431-2.515-3.371-4.502-5.822-5.969C181.58,96.732,178.902,96,175.999,96
		c-2.901,0-5.58,0.731-8.031,2.199c-2.45,1.467-4.392,3.454-5.821,5.969c-1.431,2.514-2.146,5.256-2.146,8.231
		c0,3.574,1.018,6.787,3.052,9.642s4.663,4.83,7.886,5.928c0.375,0.07,0.652,0.021,0.832-0.15c0.182-0.17,0.271-0.385,0.271-0.641
		c0-0.043-0.004-0.426-0.012-1.152c-0.006-0.726-0.01-1.358-0.01-1.899l-0.479,0.084c-0.306,0.059-0.69,0.082-1.156,0.076
		c-0.466-0.009-0.948-0.058-1.448-0.15c-0.5-0.092-0.966-0.305-1.396-0.641c-0.431-0.334-0.735-0.771-0.917-1.312l-0.208-0.492
		c-0.14-0.325-0.356-0.688-0.656-1.088c-0.299-0.398-0.601-0.67-0.905-0.812l-0.146-0.105c-0.098-0.071-0.188-0.158-0.271-0.258
		c-0.082-0.1-0.146-0.199-0.188-0.299c-0.041-0.101-0.007-0.182,0.104-0.246c0.111-0.064,0.312-0.096,0.604-0.096l0.416,0.063
		c0.278,0.058,0.622,0.228,1.03,0.512c0.41,0.285,0.748,0.656,1.012,1.111c0.318,0.584,0.704,1.029,1.156,1.334
		c0.451,0.308,0.906,0.459,1.363,0.459c0.459,0,0.854-0.035,1.188-0.104c0.333-0.072,0.646-0.181,0.938-0.32
		c0.125-0.955,0.465-1.688,1.021-2.201c-0.791-0.084-1.503-0.213-2.136-0.383c-0.631-0.172-1.284-0.449-1.959-0.834
		c-0.674-0.385-1.231-0.861-1.676-1.432c-0.444-0.568-0.811-1.316-1.095-2.242s-0.427-1.992-0.427-3.203
		c0-1.723,0.549-3.189,1.646-4.398c-0.515-1.297-0.465-2.748,0.146-4.356c0.401-0.127,1-0.031,1.791,0.289
		c0.792,0.319,1.371,0.594,1.739,0.821c0.369,0.228,0.664,0.421,0.886,0.576c1.292-0.369,2.625-0.555,4-0.555
		s2.709,0.186,4.001,0.555l0.791-0.512c0.542-0.342,1.182-0.656,1.916-0.939c0.736-0.284,1.3-0.362,1.688-0.235
		c0.625,1.608,0.682,3.062,0.166,4.356c1.099,1.209,1.646,2.677,1.646,4.398c0,1.211-0.143,2.281-0.428,3.215
		c-0.284,0.932-0.651,1.68-1.104,2.242c-0.451,0.562-1.014,1.035-1.688,1.42s-1.326,0.662-1.959,0.832
		c-0.633,0.172-1.344,0.301-2.135,0.387c0.721,0.64,1.082,1.65,1.082,3.031v4.506c0,0.256,0.088,0.469,0.262,0.641
		c0.174,0.171,0.447,0.222,0.822,0.148c3.223-1.096,5.852-3.07,7.885-5.926c2.035-2.854,3.054-6.068,3.054-9.644
		C191.999,109.424,191.283,106.682,189.854,104.168z"/>
</g>
<g>
	<path d="M208.001,128.001c-8.838,0-16.001-7.164-16.001-16.001c0-8.835,7.163-15.999,16.001-15.999
		c8.835,0,15.999,7.164,15.999,15.999C224,120.837,216.836,128.001,208.001,128.001z"/>
	<path fill="#FFFFFF" d="M210.452,116.304l-1.513-2.98h-2.22l3.732,7.367l3.73-7.367h-2.222"/>
	<path fill="#FFFFFF" d="M206.886,109.269l2.055,4.055h3.021l-5.075-10.014l-5.068,10.014h3.019"/>
</g>
<g>
	<path d="M208.001,96.001C199.163,96.001,192,88.837,192,80c0-8.835,7.163-15.999,16.001-15.999C216.836,64.001,224,71.165,224,80
		C224,88.837,216.836,96.001,208.001,96.001z"/>
	<path fill="#FFFFFF" d="M210.452,84.304l-1.513-2.98h-2.22l3.732,7.367l3.73-7.367h-2.222"/>
	<path fill="#FFFFFF" d="M206.886,77.269l2.055,4.055h3.021l-5.075-10.014l-5.068,10.014h3.019"/>
</g>
<g>
	<path fill="#676767" d="M208.001,64C199.163,64,192,56.836,192,47.999C192,39.164,199.163,32,208.001,32
		C216.836,32,224,39.164,224,47.999C224,56.836,216.836,64,208.001,64z"/>
	<path fill="#FCFCFC" d="M210.452,52.303l-1.513-2.98h-2.22l3.732,7.367l3.73-7.367h-2.222"/>
	<path fill="#FCFCFC" d="M206.886,45.268l2.055,4.055h3.021l-5.075-10.014l-5.068,10.014h3.019"/>
</g>
<g>
	<path fill="#989898" d="M208.001,32C199.163,32,192,24.836,192,15.999C192,7.164,199.163,0,208.001,0
		C216.836,0,224,7.164,224,15.999C224,24.836,216.836,32,208.001,32z"/>
	<path fill="#FCFCFC" d="M210.452,20.303l-1.513-2.98h-2.22l3.732,7.367l3.73-7.367h-2.222"/>
	<path fill="#FCFCFC" d="M206.886,13.268l2.055,4.055h3.021l-5.075-10.014l-5.068,10.014h3.019"/>
</g>
</svg>
