<?xml version="1.0" standalone="no"?>
<!DOCTYPE svg PUBLIC "-//W3C//DTD SVG 20010904//EN"
 "http://www.w3.org/TR/2001/REC-SVG-20010904/DTD/svg10.dtd">
<svg version="1.0" xmlns="http://www.w3.org/2000/svg"
 width="700.000000pt" height="700.000000pt" viewBox="0 0 700.000000 700.000000"
 preserveAspectRatio="xMidYMid meet">
<metadata>
Created by potrace 1.11, written by Peter Selinger 2001-2013
</metadata>
<g transform="translate(0.000000,700.000000) scale(0.100000,-0.100000)"
fill="#000000" stroke="none">
<path d="M3868 5625 c-2 -2 -42 -5 -89 -9 -118 -9 -295 -40 -404 -71 -381
-108 -686 -319 -896 -620 -45 -65 -113 -177 -115 -190 -1 -6 -11 -25 -22 -44
l-20 -33 0 467 c0 299 -4 470 -10 474 -6 3 -149 6 -319 5 l-308 -1 -2 -2156
-1 -2157 21 -1 c103 -3 611 1 614 5 3 3 5 524 5 1158 1 634 4 1182 8 1218 10
81 20 141 26 159 2 8 7 30 10 48 7 44 46 172 73 243 157 401 445 682 828 809
80 27 143 41 300 69 68 12 344 13 413 2 30 -5 70 -12 87 -15 18 -3 50 -9 70
-14 21 -6 56 -14 78 -20 216 -55 455 -228 580 -421 65 -100 138 -270 159 -375
18 -85 26 -131 32 -196 4 -40 8 -658 8 -1371 l1 -1298 30 0 c40 -1 485 -1 555
0 l55 0 -1 1418 c0 779 -4 1435 -7 1457 -4 22 -9 63 -12 90 -3 28 -7 61 -10
75 -3 14 -7 36 -10 50 -35 186 -101 374 -175 500 -17 28 -30 53 -30 57 0 3
-20 33 -44 67 -259 360 -622 558 -1126 612 -60 6 -347 13 -352 9z"/>
</g>
</svg>
